<svg xmlns="http://www.w3.org/2000/svg" viewBox="8394.463 442.311 1924.816 1551.689">
    <defs>
        <style>
            .cls-1{clip-path:url(#clip-path)}.cls-2{fill:url(#linear-gradient)}
        </style>
        <clipPath id="clip-path">
            <path id="Rectangle_56" d="M0 0h1924.817v1551.689H0z" data-name="Rectangle 56"/>
        </clipPath>
        <linearGradient id="linear-gradient" x1=".5" x2=".5" y1="1" gradientUnits="objectBoundingBox">
            <stop offset=".497" stop-color="#fff" stop-opacity=".251"/>
            <stop offset=".908" stop-color="#fff" stop-opacity=".91"/>
            <stop offset=".909" stop-color="#fff" stop-opacity=".914"/>
            <stop offset=".999" stop-color="#fff"/>
        </linearGradient>
    </defs>
    <g id="Symbol_2_1" data-name="Symbol 2 – 1" transform="translate(8400 -58)">
        <g id="Group_41" class="cls-1" data-name="Group 41" transform="translate(-5.537 500.311)">
            <path id="Path_552" d="M2694.643 102.81a3.091 3.091 0 0 0-5.918.9l-145.139 2.608a2.359 2.359 0 0 0-.2-.8 3.087 3.087 0 0 0-4.113-1.6 2.553 2.553 0 0 0-1.2 1.1L2411.086 34.6a3.263 3.263 0 0 0-.3-3.009 3.221 3.221 0 0 0-3.31-1.2 3.4 3.4 0 0 0-2.207 2.006L2266.85 3.51a2.658 2.658 0 0 0-.9-2.407 3.173 3.173 0 0 0-3.209-.8 3.009 3.009 0 0 0-2.106 2.909l-157.479 15.745a.753.753 0 0 0-.1-.5 3.122 3.122 0 0 0-5.718 2.508 3.049 3.049 0 0 0 1.2 1.3l-68.006 139.321a2.817 2.817 0 0 0-2.206.1 3.215 3.215 0 0 0-1.705 3.912l-124.576 61.686a3.155 3.155 0 0 0-3.812-1.2 3.087 3.087 0 0 0-1.6 4.112c0 .1.1.1.1.2l-92.379 60.583a2.965 2.965 0 0 0-3.611-.9 3.176 3.176 0 0 0-1.705 1.906l-87.163-19.258a2.978 2.978 0 0 0-.2-1.6 3.121 3.121 0 1 0-5.717 2.508l.1.1-104.518 64.186a3.105 3.105 0 0 0-3.711-1 2.946 2.946 0 0 0-1.806 2.708l-111.637 4.413a2.362 2.362 0 0 0-.2-.8 3.122 3.122 0 0 0-5.717 2.508c.1.2.3.4.4.6l-25.577 22.468-32.4-2.708a3.365 3.365 0 0 0-5.918-2.106l-72.72-53.762a4.363 4.363 0 0 0 .4-.7 3.394 3.394 0 0 0-6.419-2.207 2.779 2.779 0 0 0-.1.9l-121.467 5.517a3.408 3.408 0 0 0-2.207-2.708 3.336 3.336 0 0 0-3.912 1.4l-119.26-60.082a.1.1 0 0 1 .1-.1 3.394 3.394 0 1 0-6.419-2.207 3.685 3.685 0 0 0-.1 1.805l-92.78 28.787a3.411 3.411 0 0 0-2.006-1.906 3.283 3.283 0 0 0-3.811 1.3l-106.52-57.369c0-.1.1-.1.1-.2a3.406 3.406 0 0 0-6.219-2.708L730.909 164.3a3.5 3.5 0 0 0-2.207-4.112 3.308 3.308 0 0 0-2.407.1L639.733 15.346a4.442 4.442 0 0 0 1.2-1.5 3.379 3.379 0 1 0-6.419-2.106c-.1.2 0 .4-.1.6L462 9.629a3.356 3.356 0 0 0-2.307-2.808 3.44 3.44 0 0 0-4.313 2.106 2.977 2.977 0 0 0-.1 1.6L307.83 54.564a3.374 3.374 0 0 0-6.319.2 3.354 3.354 0 0 0 .2 2.608l-131.4 88.066a3.6 3.6 0 0 0-1.4-1 3.44 3.44 0 0 0-4.313 2.106 2.777 2.777 0 0 0-.1.9L6.72 157.877a3.27 3.27 0 0 0-2.207-2.608 3.379 3.379 0 1 0-2.106 6.419 3.354 3.354 0 0 0 2.608-.2L52.96 241.83a4.184 4.184 0 0 0-1.3 1.6 3.44 3.44 0 0 0 2.106 4.313 3.31 3.31 0 0 0 3.31-.7l98.9 87.765a3.517 3.517 0 0 0-.5.8 3.379 3.379 0 1 0 6.419 2.106 2.926 2.926 0 0 0 .1-1.6l129.491-35.808a3.916 3.916 0 0 0 2.006 2.006 3.463 3.463 0 0 0 4.112-1.705l1.3.5L387.772 496.4a3.517 3.517 0 0 0-1.4.6l-1.6-1.4.8 2.207a3.617 3.617 0 0 0-.6 2.006 3.55 3.55 0 0 0 2.608 3.41l23.07 64.294-25.085 141.525h-.4a3.232 3.232 0 0 0-3.21 3.21 3.326 3.326 0 0 0 2.708 3.21l-30.593 284.46-.1.6h2.909l60.182 11.635-3.009 133.4a3.282 3.282 0 0 0-3.109 3.21 3.238 3.238 0 0 0 2.608 3.21L385.465 1356.1h-.2a3.232 3.232 0 0 0-3.21 3.21 3.3 3.3 0 0 0 3.21 3.21c.3 0 .6-.1.9-.1l79.741 186.664a3.228 3.228 0 0 0 1.6 6.018 3.3 3.3 0 0 0 3.21-3.21v-.1l201.609-58.477a3.26 3.26 0 0 0 5.617 0l164.5 58.075v.4a3.232 3.232 0 0 0 3.21 3.21 3.3 3.3 0 0 0 3.21-3.21c0-.3-.1-.6-.1-.9l41.626-25.677 175.731 26.781a3.2 3.2 0 0 0 3.21 3.009 3.232 3.232 0 0 0 3.21-3.21 1.71 1.71 0 0 0-.1-.7l87.464-45.638 131.9 46.841v.4a3.232 3.232 0 0 0 3.21 3.21 3.169 3.169 0 0 0 3.21-3.21l230.7-54.365 101.908 53.361a2.934 2.934 0 0 0-.2.9 3.232 3.232 0 0 0 3.21 3.21 3.3 3.3 0 0 0 3.21-3.21v-.1c8.827-2.508 41.726-12.338 166.5-50.653l162.993 50.453v.3a3.232 3.232 0 0 0 3.21 3.21 2.83 2.83 0 0 0 1.5-.4l.7 1-.4-1.1a3.292 3.292 0 0 0 1.5-2.708 3.605 3.605 0 0 0-.2-1.1l124.175-89.871 127.686 89.571a3.248 3.248 0 0 0 2.909 4.614 3.3 3.3 0 0 0 3.209-3.21 3.538 3.538 0 0 0-.3-1.4l105.419-88.768.5-.4-117.053-86.461a2.831 2.831 0 0 0 .4-1.5 3.051 3.051 0 0 0-1.1-2.407l118.358-297.4a2.777 2.777 0 0 0 .9.1 3.232 3.232 0 0 0 3.21-3.21 3.136 3.136 0 0 0-2.407-3.109l7.924-319.465 49.951-267.509 164.4-198.4a3.731 3.731 0 0 0 4.915-.8 3.816 3.816 0 0 0-.2-5.015l83.553-87.765a3.021 3.021 0 0 0 3.812 0 3.717 3.717 0 0 0 1.2-2.407 3.122 3.122 0 0 0-1.5-2.708l37.714-77.233a3.319 3.319 0 0 0 2.407 0 2.854 2.854 0 0 0 1.707-3.931zm-153.865 7.122a3.562 3.562 0 0 0 1-.2 4.459 4.459 0 0 0 1.1-.8L2648.7 185.36a4.246 4.246 0 0 0-.4 1.2l-105.719-.6a2.935 2.935 0 0 0-.2-.9 3.091 3.091 0 0 0-2.608-1.805zm-.6 0l-1 73.221a3.562 3.562 0 0 0-1 .2 3.6 3.6 0 0 0-1 .7l-109.13-82.148a4.159 4.159 0 0 0 .4-1l109.03 6.118a4.275 4.275 0 0 0 .2 1.1 3 3 0 0 0 2.499 1.809zm-3.611 77.534c0 .1.1.1.1.2l-98.3 65.8a2.8 2.8 0 0 0-2.207-1.1l-10.231-149.05a1.274 1.274 0 0 0 .6-.1 3.608 3.608 0 0 0 1-.7l109.13 82.148a3.4 3.4 0 0 0-.093 2.802zM2213.59 1374.754l-142.431 23.371 29.389-45.538 113.042 21.365v.8zm-241.931 175.43a3.031 3.031 0 0 0-1.6-.5.9.9 0 0 0-.5.1l-33.1-88.167c38.115-11.735 76.23-23.471 111.437-34.3l2.207 1.6zm-337.62-.5a1.27 1.27 0 0 0-.6.1l-28.787-68.908 70.714-16.65a2.746 2.746 0 0 0 1.3 1.3l-41.325 84.455a2.776 2.776 0 0 0-1.303-.298zm-339.025 0a1.271 1.271 0 0 0-.6.1L1256.5 1455.3l84.054-43.832-44.635 138.418a1.49 1.49 0 0 0-.905-.203zm-224.077-.6a4.2 4.2 0 0 0-1.5-.4 5.027 5.027 0 0 0-1.2.2l-57.474-94.285a2.884 2.884 0 0 0 .7-1.806l96.893 34.4zm-225.281-.4a3.2 3.2 0 0 0-1.4.3l-25.176-34.6 31.8 4.814-4.815 29.389a.759.759 0 0 1-.409.093zm-27.483-35.407l-25.778-35.307 66.4-8.225-7.924 48.547zm-26.38-36.209l-38.015-52.158 128.288-110.94a3.536 3.536 0 0 0 2.006 1.4L859 1468.738zM675.14 1488.5l-35.507-152.461 44.835-4.213 16.851 23.07-25.778 133.6zm-2.809 1.6L528.6 1424.4l38.416-81.446 71.717-6.821 35.404 152.567a2.838 2.838 0 0 0-1.805 1.4zm-204.517 58.58l-21.164-160.585 80.543 36.811-58.477 124.075c-.2-.201-.601-.201-.902-.301zm-21.365-161.789l-4.213-32.2 123.574-11.735-38.115 80.944zM376.438 155.068L364.7 175.53l-69.608-44.03c.1-.1.1-.2.2-.3l79.841 20.662a3.232 3.232 0 0 0 1.305 3.206zm.7.5c.1 0 .1.1.2.1a3.706 3.706 0 0 0 2.909-.4l41.425 55.769c-.1.1-.3.2-.4.4L365.4 176.132zm3.511-.6a2.738 2.738 0 0 0 .9-1.2l60.683 20.362a3.336 3.336 0 0 0 2.207 4.012 3.648 3.648 0 0 0 2.909-.4c.1.1.2.2.2.3a3.459 3.459 0 0 0 .9 1.2l-22.769 31.5a4.359 4.359 0 0 0-.7-.4 3.706 3.706 0 0 0-2.909.4zm1.2-3.109l70.317-19.459-2.006 40.422a3.149 3.149 0 0 0-1.6.6 3.441 3.441 0 0 0-6.219.2l-60.683-20.362a3.414 3.414 0 0 0 .196-1.402zm222.171-22.468l-66.7 20.362-12.137-34.4a3.561 3.561 0 0 0 1.805-2.006v-.2l76.933 15.246a3.413 3.413 0 0 0 .104.998zm134.206 100.4l5.517 33.7c-.2 0-.3.1-.5.1l-17.553-35.307a3.65 3.65 0 0 0 1.4-1.6zm-10.826-3.909v-.2l10.131-.3.6 3.511zm166.8 59.781l31.9 102.61-54.466-118.759a3.05 3.05 0 0 0 .7-.5zm-21.362-17.353c.1-.2.3-.4.3-.6v-.3l15.948 2.106 4.614 14.845zm332.806 89.872l19.96-7.422 19.76 47.544-40.322-37.313a3.269 3.269 0 0 0 .6-2.808zm291.983 23.371l-28.085-5.517 1.906-5.015 22.267 1.805zm-4.915-12.438l1.4 2.909h-.1zm114.346 12.337a1.56 1.56 0 0 0 .6.8l-7.824 8.626-10.231-8.024a3.278 3.278 0 0 0 1.1-1.5 3.411 3.411 0 0 0-2.206-4.313 5.035 5.035 0 0 0-1.2-.2l.7-2.307 18.857 5.216a5.264 5.264 0 0 0 .203 1.702zm298-109.23a2.1 2.1 0 0 0 .6.4l-40.723 112.941 21.264-96.391zM1886.6 287.97l3.109-13.942 14.444-3.109a.368.368 0 0 0 .1.3 1.755 1.755 0 0 0 .4.5zm147.947-65.6a3.169 3.169 0 0 0 1.4 1.4l-13.34 33.6a.6.6 0 0 1-.4-.1l2.508-31.194zm-9.829 2.808l.3-3.21 9.228-.5v.2zM2351 126.682l71.516-25.076c0 .1.1.2.2.3l-60.282 45.738-12.234-17.852a3.48 3.48 0 0 0 .8-3.11zm82.048 129.692l-128.684 58.276a2.8 2.8 0 0 0-2.106-1.4l9.027-123.072a3.611 3.611 0 0 0 1.1-.2 3.349 3.349 0 0 0 1.3-1.1l119.461 65.5a2.718 2.718 0 0 0-.093 1.996zm-198.4 420.772c.1.1.2.1.4.2l-20.562 143.233c-.2 0-.4-.1-.7-.1a3.2 3.2 0 0 0-2.809 1.6l-93.082-42.83 27.684-24.574a2.969 2.969 0 0 0 1 .2 3.232 3.232 0 0 0 3.21-3.21 1.269 1.269 0 0 0-.1-.6l83.854-74.525a5.986 5.986 0 0 1 1.1.6zM2215.4 820.981l20.061-139.522-2.006 133.4-16.65 9.93a2.961 2.961 0 0 0 .2-1 2.914 2.914 0 0 0-1.605-2.808zm-16.149 372.024a2.1 2.1 0 0 0-.6.4L2053.1 1073.143a4.169 4.169 0 0 0 .4-1c10.632-.3 49.751-.3 95.79-.3zm-48.851-121.166c20.863 0 43.03.1 64.6.1l-14.55 120.761h-.2zm-272.926 235.411a3.874 3.874 0 0 0-1.6 1.5c-16.851-11.435-124.777-102.911-170.515-142.029a1.488 1.488 0 0 0 .1-.7l209.433-30.191a3.324 3.324 0 0 0 2.106 1.906l-38.717 169.211-1.3-.9zm-341.833 1.6l67.6-58.076 73.221 209.132c-.1 0-.1.1-.2.1l-141.022-147.741a3.465 3.465 0 0 0 .7-2.006 2.239 2.239 0 0 0-.299-1.404zm38.516-144.336l11.635-41.124 113.242 41.927v.5a2.776 2.776 0 0 0 .3 1.3l-95.489 81.948zm-230.2 236.214l-49.75-26.079L1358 1357.3zm.6 1.4l5.818 3.009-8.125 4.213zm-51.656-28.185l-85.157-44.535c.1-.2.1-.4.2-.6l162.09-8.927-11.734 36.219zM453.972 176.032l9.128-2.809-4.714 4.714-4.413-1a1.356 1.356 0 0 0-.001-.905zm10.632-3.21l72.419-22.167 16.249 46.24a3.561 3.561 0 0 0-1.805 2.006l-92.179-20.763zm-.3-.8l-10.532 3.21a1.385 1.385 0 0 0-.3-.4c0-.1-.1-.1-.1-.2l63.291-55.769zm-10.432 5.717l3.912.9-7.021 7.122.1-5.617a3.48 3.48 0 0 0 3.009-2.407zm4.915 1.1l92.58 20.863v.4l-101.106 10.434.6-23.672zm92.68 21.966a3.282 3.282 0 0 0 2.207 2.508 3.35 3.35 0 0 0 1.705.1l32.2 105.419a3.41 3.41 0 0 0-1.906 2.006 2.469 2.469 0 0 0-.1 1.2L449.759 231.4l.5-20.161zm380.249 192.784l44.334-14.945-40.522 14.544zm.3.8l-.2.1zm-.2.7l2.708-1 49.048-5.517L958.5 413.65l-26.985-17.75a.761.761 0 0 0 .2-.4c.101-.206.001-.306.101-.406zm214.549-27.583l-41.626 6.62c0-.2-.1-.3-.1-.5l37.012-20.562zm-26.781-84.556l54.966 50.854-32.4 18.055zm-14.945 93.081a5.868 5.868 0 0 0 .2-1.3l41.726-6.62 18.757 57.173a3.6 3.6 0 0 0-1 .7l-60.082-49.148c.097-.299.298-.499.398-.8zm184.961 68.512l-1.3 2.407-2.708-.1 1.1-2.909.9-.4zm-.8-5.918l.1-.3.2.3zm17.052-3.912l29.288-8.425-22.669 16.851-17.653-1.705a3.612 3.612 0 0 0-.2-1.1zm-6.62 2.608l2.207-1.3 1.1-.3zm78.537-39.118l-9.93 4.915 9.93-7.322v.1a3.628 3.628 0 0 0-.005 2.304zm-.7 1l-18.356 12.939-3.912.7 10.131-7.523zm207.628-16.951l-5.015 15.547-9.83-1.906 3.611-6.921zm-10.432 5.316l.8-1.4 7.222-3.31zm56.872 33.3a3.4 3.4 0 0 0 2.808-.3l11.334 18.757a3.3 3.3 0 0 0-.4 1.705l-75.528 14.444 14.344-26.38 45.337-10.231a3.226 3.226 0 0 0 2.098 2.008zm-.1-6.62l.1.2zm34.1-44.334l35.507 15.948a4.331 4.331 0 0 0-.1.5l-38.616-2.808zm-.6-.9l-31.094-14.042 46.44-50.854zm35.909 17.954a2.668 2.668 0 0 0 .3 1.2 1.8 1.8 0 0 0 .5.7l-51.155 49.65a3.339 3.339 0 0 0-1-.6l12.738-53.763zm209.734-117.054l5.416-.4 2.909 6.921-8.526-5.216a5.08 5.08 0 0 0 .194-1.304zm-.1-.8l4.714-1.805.6 1.5-5.216.4c-.105.004-.105.004-.105-.096zm130.293-48.547l36.009-8.526v.1c.1.2.3.4.4.6l-20.669 17.659-15.948-8.425a2.2 2.2 0 0 0 .201-1.409zm101.507 283.356v71.917a2.71 2.71 0 0 0-1.1.5l-83.151-91.476 72.018-54.665a3.493 3.493 0 0 0 2.809 1l8.927 66.6a3.272 3.272 0 0 0-2.106 3.009 3.315 3.315 0 0 0 2.596 3.114zm-9.428 448.255l-9.128 52.96a1.708 1.708 0 0 0-.7-.1 3.655 3.655 0 0 0-2.307.9l-79.039-61.486-3.009-39.62c19.458-8.726 39.619-17.854 59.078-26.68l34.4 68.206a3.2 3.2 0 0 0-1.4 2.708 3.262 3.262 0 0 0 2.098 3.111zM1984.7 1105.942l-77.434-5.015-17.052-53.662 98.1 56.671a2.369 2.369 0 0 0-.8.9zm2.207.2zm-538.628-33.2l-150.856 42.127 21.866-50.453 128.89 7.423v.4a.9.9 0 0 1 .098.503zm-241.931 252.463a.1.1 0 0 1-.1-.1l43.431-100 41.525 12.438zm85.86-87.264l94.987 28.486-16.851 52.258-162.391 8.927a3.112 3.112 0 0 0-.9-1.805zM449.157 355.374l-.1-.4.1-.3-.2-.1.3-.6a2.926 2.926 0 0 0 .1-1.6l136.213-39.128.3.2a3.211 3.211 0 0 0 1.906 1.705h.1L563.7 460.692a3.417 3.417 0 0 0-2.307.8zM560.9 462.2a4.068 4.068 0 0 0-.5.9.369.369 0 0 1-.1.3l-73.422 15.246-37.219-121.668zm29.489-147.145a3.618 3.618 0 0 0 1.5-1.5l139.02 52.145a3.614 3.614 0 0 0 .5 2.708l-94.786 79.741a5.685 5.685 0 0 0-1.3-.8 3.684 3.684 0 0 0-1.805-.1l-43.231-132.1.1-.1zM762.1 499.91l75.127-15.848L695.9 614.356l61.89-110.434a3.385 3.385 0 0 0 4.21-2.206 3.683 3.683 0 0 0 .1-1.806zm158.579-98a3.233 3.233 0 0 0 3.21-1.3l1.805 1.1-.3 1-6.419 5.918zm-.3-6.62l-.4-1 3.109.1-.6 1c-.1 0-.1-.1-.2-.1a4.08 4.08 0 0 0-1.907.004zm3.711 1.5a1.969 1.969 0 0 0-.9-.9l.7-1.3H925a3.266 3.266 0 0 0 .4 1.4zm1.6-.6c.1.1.2.3.3.4l-1.6.6c0-.1 0-.1-.1-.2zm124.276 78.738c0 .1-.1.2-.2.3-.1.2 0 .4-.1.5l-118.652-5.708-1.5-26.48 24.975-24.975zm-94.887-56.872l3.511-3.511 80.644 53.06zm134.406-17.352l17.854 6.52 8.325 42.328-59.58 25.176a3.458 3.458 0 0 0-1.2-1.2zm-.2-1.1l-47.945-17.553 56.872-6.419a3.224 3.224 0 0 0 1.5 2.106zm74.224 29.79l-47.143 19.86-8.124-41.726 55.267 20.161a2.487 2.487 0 0 0 .007 1.711zm-18.255 69.109l127.084-26.38.6.2a3.348 3.348 0 0 0 4.915 1.3l.4.1-21.653 146.15a3.818 3.818 0 0 0-1.5.5L1145.161 499.81a5.724 5.724 0 0 0 .1-1.304zm162.391-50.553l-.4.4-.4.1.6-.5zm-11.334-5.517l15.046 1.4-1.2.9a1.859 1.859 0 0 0-.7.2 2.95 2.95 0 0 0-1.5 1.4l-.2.2zm11.435 6.319a.368.368 0 0 0 .1.3 3.086 3.086 0 0 0 4.112 1.6 2.372 2.372 0 0 0 1.3-1.1l61.185 47.042-70.212-45.437zm272.925-49.048c0 .2.1.3.1.4l-1.1.5.3-.9zm-.6-.4l.2-.5.3.1c0 .1-.1.3 0 .4zm1 1.5a3.273 3.273 0 0 0 5.717 0l2.909 1.1-8.125 8.827-5.015-.7 2.708-8.425zm68.407 45.136l3.611 4.915-3.41-5.617.2-.5 5.121 8.732 32.7 44.434-.6.5.3.4c-.1.2-.2.3-.3.5l-52.158-11.134zm-.6-2.106a.369.369 0 0 0 .3-.1l-.1.4zm104.917 29.69a2.95 2.95 0 0 0-1 1.2l-56.47-18.456 4.313-39.419 15.848-7.322zm-48.446-84.154a2.845 2.845 0 0 0 1.2-2.006l52.559 1.5-42.529 19.76zm136.011 26.279l48.146 40.523a3.521 3.521 0 0 0-.6 1.805l-130.294 17.352a.905.905 0 0 0-.1-.5c0-.1-.1-.1-.2-.2zm-73.723 51.355l69.711-54.766 3.41 2.909zm103.212-75.428a2.832 2.832 0 0 0-1.805.2c-.1 0-.1.1-.2.1l-.6-.9 2.808-.4zm18.857 60.182l-23.27-53.963 1.6-1.1a3.2 3.2 0 0 0 3.109.9zm-21.465-59.48a5.512 5.512 0 0 0-.7.9l-1.3-.6a2 2 0 0 0 .2-1.3l1-.1zm-.8 1.2c0 .1 0 .1-.1.2l-1.5-.4a.76.76 0 0 0 .2-.4zm-.2.6a2.835 2.835 0 0 0 .2 1.805c0 .1.1.1.2.2l-1.5 1-1.3-3.109a3.125 3.125 0 0 0 .6-.4zm23.371 60.984a1.8 1.8 0 0 0-.7.5l-47.945-40.422 24.073-17.052zm145.439-103.513l-71.817 25.978a4.278 4.278 0 0 0-1.1-1.2l27.784-54.665 45.337 27.784a2.6 2.6 0 0 0-.202 2.116zm-72.92 30.994l69.209 117.154a2.7 2.7 0 0 0-.7.8h-1.6l-76.84-24.058zm269.514 291.481l-86.461 25.778-1.4-61.686 88.066 34.6a3.555 3.555 0 0 0-.2 1zm-87.464 26.179l-18.556 5.517-39.72-88.066 2.106-1.4 54.766 21.465zM1600.537 1060.2l-82.249-84.054c.1-.2.2-.3.3-.5l.3-.9 105.318-10.231 4.012 5.015-25.577 90.574zm1.805.8l-.2.7-.7-.7zm-109.531-51.054l17.052-26.279 28.386 81.145-37.714 2.808zm7.623 64.495l-42.428-2.808 41.626-3.109zm-195.892-96.592l-.7-.4-6.921-40.823 61.586 10.833-54.465 29.589zm-220.365 196.901l-20.863-6.219 74.124-111.938a4.31 4.31 0 0 0 1.2.2 3.2 3.2 0 0 0 1.4-.3l22.869 96.391zm78.838-21.064l11.435 48.045-88.467-26.48zm-265.4-197.4l-56.27 8.526 22.167-29.489 34.2 20.161c0 .2-.1.4-.1.6zM1024.9 504.625l-7.222 13.541-86.06-37.614-.2-2.808 92.379 22.468c-.1.2-.3.4-.3.6a3.53 3.53 0 0 0 1.403 3.813zm5.115-3.912h107.425l-77.14 36.109-41.726-18.255 7.121-13.541a3.385 3.385 0 0 0 4.213-2.207 2.579 2.579 0 0 0 .105-2.106zm26.279-25.377l59.48-25.076 25.076 45.538a3.343 3.343 0 0 0-1.906 1.6l-82.65-19.86v-.1a3.043 3.043 0 0 0-.002-2.102zm82.85 25.678a3.262 3.262 0 0 0 1.6 1.2 3.58 3.58 0 0 0 2.508-.1l-.2 70.914-81.547-35.608zm133.4-29.79l-.4.1-30.793-8.324v-.4l1.1-.4 6.821-1.4 23.27 9.027a3.313 3.313 0 0 0 .004 1.397zm-26.781-10.231l2.106-.8.6.2zm23.571-4.815l-2.307.5-2.307-3.41 2.809-1.2zm-2.507-8.426l4.514 1.6-3.31 1.4zm1.6 3.912l4.112-1.705 9.529 3.511v.1l-11.936 2.508zm14.444 2.207l.3-.1 1.1.5-6.119 11.535zm-.5-1.1l-8.927-3.21 5.818-2.407 5.216.2zm-10.131-3.711l-5.416-2.006c0-.1.1-.3.1-.4l10.331.3zm-5.517-3.912a2.975 2.975 0 0 0-1.705-1.6l-1.906-4.614 18.456 1.906zm-2.708-1.906a2.209 2.209 0 0 0-.8.1l-1.2-4.514h.2zm1.1 6.018a4.452 4.452 0 0 0 1.1-.8l1.1 2.708-3.009 1.3-2.508-3.811a3.036 3.036 0 0 0 3.325.6zm1.1 7.523l-16.55 3.41-.9-.3 15.246-6.419zm-15.647 3.812l15.948-3.31 7.222 10.933a3.143 3.143 0 0 0-.8 1.1zm16.751-3.511l2.207-.5 4.313 10.331zm3.109-.6l11.435-2.407-5.216 13.441a4.871 4.871 0 0 0-1.705 0zm14.243-2.006l7.422 3.611-13.842 10.231a1.8 1.8 0 0 0-.7-.5zm-.2-.9l.3-.1-.1.2zm29.389-5.818l15.848-2.207 67.4 6.419-14.028 45.928a2.8 2.8 0 0 0-2.006.1 2.373 2.373 0 0 0-1.3 1.1l-66.3-50.051a1.849 1.849 0 0 0 .397-1.296zm-.2-.8l5.417-2.307 7.422.7-12.839 1.805zm262.193-36.912l-11.334-1.5 13.842-6.419zm.6.6l4.714.6-7.523 8.225zm-12.839-2.508l3.511-6.821 11.936-1.4-.4 1.2zm12.036 2.407l-3.31 10.432-11.434 12.538-11.936 2.708 14.042-26.982.6-.3zm112.05 92.272a3.417 3.417 0 0 0 2.407.9 1.891 1.891 0 0 0 .8-.2l19.057 25.678-100 33.6a4.135 4.135 0 0 0-.7-1.1l21.164-60.984 56.27-.3a3.177 3.177 0 0 0 1.002 2.406zm65.1-25.577l-19.76 7.122-37.915-18.957 1.2-8.425 56.37 18.355a2.517 2.517 0 0 0 .105 1.905zm278.542 26.179a3.332 3.332 0 0 0 1.806 1.705l-17.453 44.234-68.708-15.346 3.41-32.5h80.142l.5.2a12.282 12.282 0 0 0 .3 1.707zm-295.897 448.857l87.163-52.258c8.325 4.915 16.45 9.729 24.273 14.343l12.438 39.018-124.576 2.006a3.608 3.608 0 0 0 .9-2.207 2 2 0 0 0-.198-.902zm275.031-367.912l-6.419-2.508 12.337-31.294 15.447 3.41-1.2 29.389zm19.96 0l-.3 7.723-17.452-6.821zm-22.468.1l-5.115.3.8-2.006zm-4.915-3.009l-58.577-23.07 2.507-23.371 68.407 15.246zm-170.515 284.259l73.422-25.377 6.118 4.714-72.319 43.331zm13.942 47.142a2194.148 2194.148 0 0 1-22.769-13.441l15.547-9.328zm104.42-205.721l-151.257 46.24c-.1-.2-.2-.5-.3-.7l69.51-80.644 82.148 33.7c0 .2-.1.4-.1.6a1.1 1.1 0 0 0-.001.804zm.3.9a3.423 3.423 0 0 0 2.207 1.5l-3.009 32.5-149.151 11.836zm-151.458 47.042l150.655-11.936-7.322 80.443h-.1a3.292 3.292 0 0 0-2.708 1.5l-140.625-69.41c-.003-.294.097-.394.097-.594zm140.12 70.821a2.782 2.782 0 0 0-.1.9c0 .3.1.6.1.9l-33.7 11.635-105.118-81.847zm-32.8 14.143l31.8-10.933-25.878 15.547zm33.7-10.933a2.76 2.76 0 0 0 1.5.8l-5.717 33-22.669-17.653zm2.407.9l7.422 43.933-13.24-10.331zm8.225-86.963l69.71-5.517a3.536 3.536 0 0 0 .8 1.3l-76.932 85.458a8.844 8.844 0 0 0-1-.6zm69.61-6.52l-69.41 5.517 3.009-32.4a2.974 2.974 0 0 0 2.207-1.4l64.294 27.583a1.488 1.488 0 0 0-.1.7zm-67-33.4a3.173 3.173 0 0 0-2.808 1.705l-81.747-33.6 69.209-80.343a3.2 3.2 0 0 0 1.4.3 3.237 3.237 0 0 0 3.21-2.608l58.176-2.909-46.34 117.555c-.397-.002-.697-.102-1.099-.102zm-10.833-115.449a3.3 3.3 0 0 0-1.6-2.508l2.708-25.778 58.376 22.969-.9 2.407zm.3-29.69l-86.762-34.1 4.514-8.125 84.756 18.957zm-87.765-34.4l-52.759-20.763 57.173 12.738zm.5 1.2l87.163 34.3-2.708 25.778c-.2 0-.4-.1-.7-.1a3.174 3.174 0 0 0-2.809 1.705l-90.273-45.136zm80.543 62.589l-111.236-7.924 20.964-37.212zm-112.34-8.024l-27.784-2.006-.2-60.182 49.149 24.574zm-.6 1L1796.73 628.5l-.2-50.152zm1.1 0l111.838 8.024a.6.6 0 0 0 .1.4l-140.017 46.944V630.4zm112.34 9.429a2.651 2.651 0 0 0 .5.6l-69.309 80.443-71.616-29.389v-4.614zm-69.51 81.847l-69.209 80.343a3.112 3.112 0 0 0-1.3-.6l-.4-108.829zm-69.009 85.258l106.321 82.75-72.82 25.076-34.1-107.425a2.1 2.1 0 0 0 .605-.401zm40.121 132.1l-16.249 9.729c-10.331-6.118-20.963-12.438-31.4-18.757l40.322-13.942zm20.763 65.3l28.787 90.774-153.558-88.771zm-11.435-39.219c31.194 18.255 57.273 32.8 68.206 37.413l-55.969.9zm-.5-1.5l-7.623-24.073 72.82-43.732 23.371 18.155-15.045 85.96h-.3a3.172 3.172 0 0 0-3.009 2.106c-9.826-3.819-37.209-19.165-70.209-38.424zm89.47-48.848l13.742 10.632 7.422 44.334-35.106 31.194a3.607 3.607 0 0 0-1-.7zM1952 876.248l29.389 22.869-22.167 19.76zm6.52 44.635l2.808 16.751c-17.954 7.623-31.395 13.039-37.313 14.745-.1-.2-.1-.4-.2-.6zm.9-.8l22.869-20.261 23.572 18.355c-16.049 7.122-30.894 13.541-43.532 18.957zm23.571-20.963l50.352-44.735 3.812 49.851c-10.331 4.614-20.562 9.228-30.292 13.541zm49.249-72.619l31.395-.3-29.389 26.179zm1 26.681l-51.054 45.337-30.386-23.675-7.623-45.036a3 3 0 0 0 1.906-2.307l85.057-.9zm-87.058-26.682a2.986 2.986 0 0 0-.5-1.5l77.033-85.659a3.324 3.324 0 0 0 1.5.4h.3l6.62 85.859zm78.036-95.388l-.4-.9.2 3.009a3.315 3.315 0 0 0-2.608 1.6l-64.294-27.583a2.932 2.932 0 0 0 .2-.9 2.969 2.969 0 0 0-.2-1l70.212-47.443zm-67.6-26.681a2.347 2.347 0 0 0-.7-.7l46.54-118.057 7.824-.4 19.86 7.824-2.708 63.492zm74.425-110.935l53.161 20.863 1.3 2.909-57.173 38.617zm.1-1l.3-8.125 38.316-1.906 13.842 30.693zm29.891-32l78.136 17.453-68.708 3.41zm8.325 20.863l-37.814 1.906 1.2-29.088 27.082 6.018zm-36.611-28.185l2.006-47.945h.1l24.374 53.863zm-.9-.2l-15.045-3.41 17.051-43.331zm-85.759-19.158l-84.355-18.857 7.523-13.441h80.242zm-85.358-19.158l-58.978-13.14h66.4zm-5.517 9.83l-9.228 16.45-49.65-24.875v-12.04a3.225 3.225 0 0 0 1.5-2.107zm-58.685 233.302a1.957 1.957 0 0 0 .7-.1l34.1 107.425-41.225 14.243c-51.255-30.893-100.6-61.185-111.938-68.306a3.089 3.089 0 0 0 .3-1.3 1.272 1.272 0 0 0-.1-.6l115.249-53.06a3.459 3.459 0 0 0 2.914 1.698zm-67.4 195.39l-97.9 9.529 8.626-30.492 32.6-11.234 56.771 31.194a3.092 3.092 0 0 0-.1 1zm-104.419 10.231l-16.249-20.261 30.292-10.432-8.526 30.191zm5.116.5l-1.2 4.413-3.21-3.912zM1521.9 835.023a3.564 3.564 0 0 0-.4-.9l76.932-80.744a4.2 4.2 0 0 0 1.5.4 2.8 2.8 0 0 0 2.207-.9l71.616 53.361.1.4a3.183 3.183 0 0 0-2.006 3.009v.3zm.5 2.307l-.6-.3v-.1l.2-.1zm-92.58 71.316l-32.2-24.273 11.936-27.483 60.082 27.784.3.1 4.514-4.112.5 3.511zm45.237-23.471l8.626 63.993-52.86-39.921zM1258.2 928.807l-108.225-115.148 135.209 59.379 10.532 62.288zm37.714 7.623l6.62 39.519-43.13-45.839zm-22.767-141.13a3 3 0 0 0 1.806.6 4.205 4.205 0 0 0 1.6-.4l4.012 1.805 115.85 87.364-13.14 30.392-97.094-42.629zm5.717-326.186l14.745-10.331 84.555 41.024-98.9-26.58-.4-.6a2.126 2.126 0 0 0 .3-.7 3.828 3.828 0 0 0-.299-2.81zm100.4 31.7a3.4 3.4 0 0 0 .6 2.106l-50.553 48.948-49.55-77.735zm82.349-43.933l25.577-5.818 23.772 13.842a3.38 3.38 0 0 0-.5 1.705v.1l-45.036 11.936-6.419-18.055a3.471 3.471 0 0 0 2.508-2.207 3.818 3.818 0 0 0 .102-1.504zm184.458 449.559l-7.021 24.975-31.294 10.833-27.082-33.8 23.973-24.775zm-40.723-23.471l66.9-69.009-25.878 91.577zm41.626 23.972l24.273 13.34-31.094 10.732zm.3-1l26.38-93.382a3.325 3.325 0 0 0 1.5.4c.3 0 .6-.1.9-.1l37.112 93.081-40.522 13.942zm28.185-99.5l.1-.2-.7-.5-14.845-53.361 53.562 1-36.611 53.662a3.177 3.177 0 0 0-1.501-.605zm-395.8-14.042l172.922-40.322a2.2 2.2 0 0 0 .9 1l-28.486 65.5zm144.938 27.182l-15.647 36.009-127.887-59.179-3.21-2.407.3-.9zm-61.887-213.545l90.574 142.13a3.6 3.6 0 0 0-.7 1L1322.9 664.708l20.361-55.267zm-19.057 2.207l7.523-20.362 11.033 17.252zm194.989-135.71l1.3-4.413 4.514 25.878 1 3.511-.4-.2-.3.7-10.231-11.635 4.012-13.541 3.21 11.434zm14.143 9.328l-11.134-16.65 15.045 4.815zm.2 2.106l.9 1.3-5.015 11.334zm-.6-.9l-4.614 14.042a2.58 2.58 0 0 0-1.5.1l-5.717-31.295.1-.4zm84.656 206.424l-34.4 11.535 1.4-38.115 33.1 24.073a3.2 3.2 0 0 0-.3 1.4 2.355 2.355 0 0 0 .206 1.099zm-33-27.884l3.511-94.185 32.7 117.655h-.2a3.2 3.2 0 0 0-2.407 1.1zm-1-.7l-46.139-33.6 48.747-60.383a2.929 2.929 0 0 0 .9.2zm-46.942-34.2l-49.65-36.109a2.942 2.942 0 0 0 .4-1.6 3.348 3.348 0 0 0-1.2-2.508l2.307-5.115 95.99-16.249a4.45 4.45 0 0 0 .8 1.1zm-50.051-44.836l.8-.1-2.006 4.313h-.1zm-2.307 3.912h-.6l-1.2-3.31 2.909-.5zm3.611-5.216l-1 .2 27.684-92.881 10.331 10.933zm26.38-95.087l-14.644-16.55-2.307-1.3c0-.1.1-.2.1-.3l1.7 1-1.6-1.805v-.3l14.945-2.708a.368.368 0 0 0 .1.3 3.087 3.087 0 0 0 4.112 1.6c.1 0 .2-.1.3-.2l1.6 5.818zm3.21-27.684l-7.924-16.149 18.456-4.213zm.1 1.906l-.3.4a.1.1 0 0 1-.1-.1l.3-.5zm-.6-1l-.5 1a3.757 3.757 0 0 0-2.106 0l-7.924-17.352 2.207-.5zm-3.21 1.2a4.753 4.753 0 0 0-1 1l-27.985-13.742 20.963-4.714zm-5.918-.6l-27.784-11.033 3.611-.8zm4.514 2.407a1.734 1.734 0 0 0-.1 1l-15.046 2.708a3.183 3.183 0 0 0-3.009-2.006 5.032 5.032 0 0 0-1.2.2l-21.666-13.441 7.723-1.705zm-20.161 2.407a1.381 1.381 0 0 1-.4.3L1488 450.862l1.6-.4zm2.006 5.817a3.5 3.5 0 0 0 2.407-1l17.152 18.155-27.985 93.884-3.51.6-36.007-102.023 44.936-11.936a3.128 3.128 0 0 0 3.009 2.307zm-11.433 116.138a3.606 3.606 0 0 0-1 .7l-4.714-3.41 4.413-.7zm-1.5 1.6a3.306 3.306 0 0 0 1.3 4.213l-46.34 155.47h-.1a3.2 3.2 0 0 0-1.4.3l-90.373-141.829 131.4-22.267zm-46.34 165.9a4.265 4.265 0 0 0 1.1.2 3.324 3.324 0 0 0 1.5-.4l59.379 80.042a3.781 3.781 0 0 0-.9 1.5l-89.47-16.149zm2.207-6.118l46.34-155.269a1.707 1.707 0 0 0 .7.1 2.949 2.949 0 0 0 2.207-.9L1555.4 627.5l-97.6 120.765a3.6 3.6 0 0 0-1.2-.806zM1556.3 628.1l46.741 34-1.5 39.218-143.032 47.945v-.1zm45.237 74.325l-1.705 44.836a3.25 3.25 0 0 0-3.109 3.009l-136.412-.5zm1-.4l35.006-11.735a3.043 3.043 0 0 0 2.508 1.2 1.707 1.707 0 0 0 .7-.1l1.3 4.614-40.322 51.656a3.138 3.138 0 0 0-1-.5zm109.631-94.185l75.632 30.99-79.239 26.58-23.17-23.27zm-.3-1.2l-101.607-41.726 126.884 9.128zm-4.313 59.179l-54.866 18.355 32.1-41.225zm.8.8l38.115 38.316-32.3 47.343-54.465-1-15.547-56.07 7.523-9.629zm-60.583 45.738l-4.614-15.948.1-.2zM1643.768 694l-1.1-3.812a2.8 2.8 0 0 0 .6-1.805l6.52-2.207zm-.8 1l-.1.2-1.2-4.012c.1 0 .1-.1.2-.1zm-.5 2.307l15.547 53.963-54.766-1a2.9 2.9 0 0 0-.6-1.705zm-39.419 54.063l55.167 1 15.045 52.358-70.613-52.559a1.2 1.2 0 0 0 .397-.799zm111.637 1.906l78.638 1.4v.4l-115.248 53.06a2.1 2.1 0 0 0-.4-.6zm.7-.9l31.9-46.641 46.741 46.942a3.712 3.712 0 0 0-.5 1.1zm31.7-48.346l-37.614-37.814 79.24-26.58a3.169 3.169 0 0 0 1.4 1.4zm41.224-66.1l-75.428-30.994 25.577-32.8 5.216.4 45.538 61.285a3.343 3.343 0 0 0-.913 2.106zm-49.149-64.7l1.806-2.307 1.906 2.608zm-1.2-.1l-127.795-9.23v-.2l100.4-33.7 29.69 40.021zm-26.681 34.3l-26.48 34-75.127-75.528a.1.1 0 0 1 .1-.1zm-27.19 34.81l-33.1 42.529-7.824 2.608a3.016 3.016 0 0 0-1.806-2.006l-32.9-118.458c.1-.1.3-.2.4-.3zm-75.629-81.14a4.969 4.969 0 0 0-1.3-.4 5.077 5.077 0 0 0-1.3.2l-40.121-59.981 63.793-.3zm-3.511.3a3.141 3.141 0 0 0-1.2 2.407v.5l-95.188 16.049 35.808-79.139a2.673 2.673 0 0 0 .6 1 2.856 2.856 0 0 0 2.708 1 3.156 3.156 0 0 0 2.608-2.207l14.143-.1zm-54.565-61.085a3.188 3.188 0 0 0-.2-1.3l8.125-7.122 5.517 8.325zm-.5-1.805a1.968 1.968 0 0 0-.9-.9l5.215-11.735 3.711 5.517zm3.511-15.748l4.012-12.438 2.708.9-5.818 13.039zm3.511-13.441l-16.049-5.115-.6-.9-.2.6-.3-.1-.8-1.705 21.465-4.112zm-17.653-4.915l.3 1.4-1.4 4.714-1.5-5.617a2.948 2.948 0 0 0 1-1.2zm-1.4-1.3c0-.3.1-.5.1-.8l.3-.1.6 1.2zm0-1.4a.369.369 0 0 0-.1-.3 2.414 2.414 0 0 0-.6-.8l.1-.2.6 1.3zm-.5-3.109l11.134-21.365 11.435-2.608-22.368 24.474zm10.733-22.167l-19.459 4.413-6.219-12.738 39.519-18.355zm-20.261 4.514l-2.207.5-5.617-12.337 1.6-.8zm-2.909.7l-21.866 4.915-10.03-4.915 26.38-12.237zm-22.969 5.216l-3.812.9-9.729-3.912 3.811-1.805zm-4.815 1.1l-7.322 1.705-5.918-3.611 3.812-1.805zm-8.526 1.906l-1.6.4-5.517-3.21 1.4-.7zm-7.924-3.31l-1.806-1 1.4-.8 1.906 1.2zm-2.608-1.5l-.9-.5 1.3-.9 1 .6zm-.6.4l-11.033 6.62 10.13-7.121zm.8.4l1.705 1-15.146 7.021zm2.508 1.5l5.316 3.109-23.27 5.216zm19.86 134.306l-5.216.9-110.233-80.243a4.023 4.023 0 0 0 .3-1.5l79.139-20.963zm-6.52 1.2l-130.9 22.167-11.635-18.255 30.392-82.65a2.469 2.469 0 0 0 1.2-.1 3.777 3.777 0 0 0 1.5-.9zm-143.233 2.809l-21.063-33 50.753-49.149a.521.521 0 0 0 .4.2zm-.4 1.2l-7.924 21.565-82.449 13.942a3.7 3.7 0 0 0-.7-1.4l69.811-67.6zm-90.373 36.51l81.948-13.842L1322 664.107l-61.987-40.322a.758.758 0 0 0 .095-.401zm62.489 42.228l127.184 82.85-141.929-42.629zm129.692 84.656v.3a.751.751 0 0 0 .1.5l-174.227 40.623a3.537 3.537 0 0 0-1.2-1.705l30.593-83.252zm-176.333 39.319a2.928 2.928 0 0 0-.9-.2 1.488 1.488 0 0 0-.7.1l-47.844-107.124 80.142 24.073zm8.927 9.729l123.774 57.173-11.836 27.283zm189.473 80.042l-.2-.4.2.4-4.614 4.213-59.781-27.583 15.747-36.209 89.771 16.149a3.315 3.315 0 0 0 2.608 3.109zm42.93-46.44l-59.38-80.142a3.384 3.384 0 0 0 .9-2.006l138.017.5a2.758 2.758 0 0 0 .8 1.5l-76.732 80.551a3.236 3.236 0 0 0-2.106-.8 2.417 2.417 0 0 0-1.508.399zm154.868-21.966a7.042 7.042 0 0 0 .6.9l-68.306 70.513-79.841-43.833-2.106-2.608zm-68.407 72.218l-23.672 24.474-53.762-67zm3.009 59.379l-88.075 30.394c-.1-.1-.1-.3-.2-.4l61.486-63.391zm.7.9l16.049 20.061-103.412 10.03zm66.3-22.969l39.72-13.742 17.353 43.431a3.468 3.468 0 0 0-1.1 1zm3.21-108.026c.2-.2.4-.3.6-.5 11.836 7.322 60.483 37.313 111.236 67.905l-74.726 25.778zm117.656-60.583l-46.842-47.143 43.231-63.392h.5a4.2 4.2 0 0 0 1.6-.4l2.708 1.1.4 109.13a7.766 7.766 0 0 0-1.604.709zm-.6-111.537a3.238 3.238 0 0 0 .8-2.106 1.272 1.272 0 0 0-.1-.6l1.1-.4v3.812zm.4-3.711a5.574 5.574 0 0 0-.6-.8l2.006-3.511v3.912zm-1.4-1.3a3.264 3.264 0 0 0-1.4-.4 2.83 2.83 0 0 0-1.5.4l-45.036-60.683 50.553 3.611.2 51.957zm-48.747-61.787l-2.608-3.511 45.036-57.775 8.726 4.313.2 60.683zm43.03-62.088l5.818-7.523a3.092 3.092 0 0 0 2.106.4v11.234zm-1-.4l-7.723-3.811 13.24-4.413c.1.2.3.4.4.6zm-.6.8l-44.735 57.373-29.406-39.518 65.7-22.067zm-74.743 16.955l-19.158-25.878a2.843 2.843 0 0 0 .8-1.1l.2-.6a2.8 2.8 0 0 0-.1-2.006l39.62-14.143 43.732 21.866zm20.763-43.933l-39.319 14.042a3.154 3.154 0 0 0-1.906-1.3l4.413-31.094zm-100.9 14.845l3.812-10.933 49.65 10.532zm-1.1 0l-64.7.5-6.018-8.927 17.051-14.945 57.474 12.137zm-71.014-9.027l-3.912-5.918 6.018-13.441 14.444 4.714zm1.805-20.261l-2.808-.9 3.711-11.736 6.72-1.3zm.2-13.14l-21.967 4.213-.9-1.805 23.07-25.377 7.623-1.705zm1.3-24.073l9.93-10.833-3.009 9.328zm-39.921-5.818l-2.909-5.918 24.775-14.845 18.155 2.207zm-.8.3l-1.6.8-2.608-5.818 1.4-.8zm-4.514-5.717l-1.7-3.812 1.2-.9 1.906 3.912zm2.307 6.821l-26.881 12.438-3.41-1.6 27.684-16.55zm-27.784 12.839l-3.912 1.805-3.009-1.2 3.711-2.207zm-4.614 2.106l-3.611 1.705-2.006-1.2 2.708-1.6zm-6.419 0l-1.1-.7 2.106-1.4 1.5.6zm-1.6-1l-9.629-5.918 11.635 4.614zm-.7.5l-1.3.9-23.488-13.642 11.535 4.614zm-25.591-13.642a3.053 3.053 0 0 0-.1-2.106v-.1l9.629 5.918zm23.571 14.945l-15.146 10.632a3.281 3.281 0 0 0-1.5-1.1 3.341 3.341 0 0 0-2.207.1l-10.234-22.677.4-.4a3.108 3.108 0 0 0 3.31.6 2.551 2.551 0 0 0 1.2-1.1zm-29.288-13.645l-.6-1.4.4-.1a.9.9 0 0 0 .1.5c.1.2.3.4.4.6zm9.93 23.471a5.58 5.58 0 0 0-.8.6l-17.754-13.842 8.426-9.228zm-1.2 1.2a4.369 4.369 0 0 0-.4.7v.3l-28.586-2.708 11.234-12.237zm-.5 1.906a3.22 3.22 0 0 0 2.307 3.109c.3.1.5.1.8.2l6.419 18.255-79.039 20.963a.368.368 0 0 0-.1-.3c-.1-.2-.3-.4-.4-.6l40.823-44.434zm-70.413 41.124a2.183 2.183 0 0 0-.8-.5l14.143-46.139 27.082 2.608zm12.939-47.443l-63.993-6.018 68.708-9.529zm-103.212 7.121l9.328-6.52 72.519 46.541zm8.626-6.921l-1.4 1zm-.7-1.5l1.6-.3-1 .7zm-9.228 7.723l-7.723-3.811.2-.4 15.647-3.21 1.1.7zm-13.842 17.252l49.55 77.735-70.012 67.8a3 3 0 0 0-1-.4zm-19.258 149.853l61.887 40.322-14.845 40.523-81.056-24.373-1.1-2.407 31.3-52.459a2.778 2.778 0 0 0 .9.1 3.459 3.459 0 0 0 2.907-1.705zm-35.608 52.96l-15.547-34.805 45.638-17.754a3.048 3.048 0 0 0 .8.8zm.3 3.109l-.9-.3.4-.7zm29.589-59.279l-68.306-29.89-40.222-89.872 108.729 119.361a.522.522 0 0 1-.206.403zm-2.809-.1l-54.364-4.814-10.532-23.571zm2.407 1.2c0 .2-.1.4-.1.6a2.969 2.969 0 0 0 .2 1l-45.638 17.754-10.833-24.273zm-30.093 56.075l-.9 1.6-62.293-18.651 47.343-18.355zm-.5 2.708l2.006.6 48.246 107.826a3.094 3.094 0 0 0-1.5 2.307l-.2-.1.1.8-124.677 16.048zm48.747 112.44l13.14 78.036-136.817-60.082-1.705-1.805zm-124.175 18.857l108.928 115.85-113.142-19.76 2.808-96.692zm-5.216 95.89l-52.158-9.127-1-3.21 55.969-84.455zM903.43 954.183l80.343-70.012a3.457 3.457 0 0 0 2.106-1.4l-1.906 167.506a2.984 2.984 0 0 0-1.5.5L903.43 958.4a3.237 3.237 0 0 0 .8-2.106 4.045 4.045 0 0 0-.8-2.111zm-56.27-29.589l-66.7-39.319c.1-.2.1-.4.2-.6l108.327-1.6 2.006 14.042-13.14 17.553zm29.589-8.526l-13.541 17.954-14.945-8.822zm-245.843-100.7l4.714-60.683a4.729 4.729 0 0 0 1.5-.6l68.808 63.993-48.045 9.83zm25.277 12.932l-26.783 5.52 1.3-17.252zm330.4 52.358l-.2-.2-.1.1v-.1l84.857-37.915 17.052 53.562-1.805 2.708-99.3-17.352-.3-.3v-.3zm-96.792 1.4l-13.34-91.677a3.2 3.2 0 0 0 1.4-1.805l3.711.3 53.863 49.149-33 43.732zm11.936.8l-9.93 13.14-1.906-12.939zm-26.58-101.206L826.1 736.927l60.88-76.427zm.8 2.106l.5.4-.3.5c-.1 0-.2-.1-.3-.1zm-1-.9v.5l-11.234 2.307-68.313-10.322 30.091-37.714zm-102.011 87.873l-4.814 3.912-29.79-27.684 19.559-24.474zm-18.155-61.687l14.945-3.109-11.435 14.343zm3.912 12.438l12.638-15.848 92.48-18.957 7.723 1.2a3.5 3.5 0 0 0 .6 1.705l-98.3 80.443zm112.941-34.6l-5.015-.8 6.72-1.4a3.384 3.384 0 0 0-1.705 2.196zm-10.732-.6l-88.668 18.155 22.466-28.191zm-90.172 18.456l-16.249 3.31-12.337-39.72 51.455 7.723zm-17.252 3.611l-46.44 9.529-69.31-64.495a4.881 4.881 0 0 0 .3-.7l102.911 15.547zm.3.9l3.711 12.036-19.86 24.975-29.69-27.583zm-16.048 38.516l29.589 27.483-2.808 2.307L727.6 860.4zm26.982 30.893l9.529 4.413a4.342 4.342 0 0 0-.1.5l-15.146-.3zm9.529 5.918a3.588 3.588 0 0 0 .4 1.1L628.4 990.192l129.49-105.92zm.5-2.307l-9.128-4.213 2.508-2.006 6.62 6.119zm-5.818-6.921l4.413-3.611 2.909 9.228a1.8 1.8 0 0 0-.7.5zm5.216-4.313l98.7-80.744a3.087 3.087 0 0 0 1.906.6 1.488 1.488 0 0 0 .7-.1l13.24 91.276-108.026 1.6a3.265 3.265 0 0 0-3.21-3.009h-.3zm256.074-159.983a3.251 3.251 0 0 0-3.009-1.906 2.829 2.829 0 0 0-1.5.4l-63.897-83.956 10.331-19.459 170.616 51.255v10.03zm112.54-42.629l-.4 138.118a3.268 3.268 0 0 0-1.906.8l-108.428-91.476-1.2-3.912zm-112.139 46.24l-.6-.5.3-.4zm-58.978-109.836l-30.492-9.127c0-.2.1-.4.1-.6l34.1 3.009zm1 .3l3.711-6.921 166.6 14.644-.1 43.431zm3.109-8.024l-34.805-3.109c0-.1 0-.2-.1-.2l48.647-22.769zm-4.514 8.626L961.2 624.688 940.342 597.3a4.241 4.241 0 0 0 .5-.7zm-9.93 20.763l63.592 83.653a3.178 3.178 0 0 0-.9 2.307 2.776 2.776 0 0 0 .3 1.3l-145.136 71.621-1.4-1.3zM880.36 787.78l-2.407-.2a1.272 1.272 0 0 0-.1-.6l1-.5zm-2.207-2.006l-.5.3a5.566 5.566 0 0 0-.6-.8l.2-.4zm5.015 3.31l83.954 6.921-31.093 41.325zm-1.2-1.1l-2.106-1.906 144.838-71.519a3.2 3.2 0 0 0 2.407 1.1h.4L967.724 795.1zm147.446-73.021l1.705 1.5 27.383 86.06-89.47-7.322zm3.21 2.708l107.224 90.373a3.591 3.591 0 0 0-.4 1.1l-79.741-6.62zm106.723 92.48a1.861 1.861 0 0 0 .2.7l-67.7 30.292-11.947-37.515zm-50.753 87.063l.6 1.906-1.705-.3zm.3-2.307l-16.75-52.86 67.905-30.292a3.348 3.348 0 0 0 2.508 1.2 1.706 1.706 0 0 0 .7-.1zm54.063-283.055L976.852 597.2l14.248-26.877 69.209-32.4 82.75 36.109zM991.9 568.819l26.279-49.349 40.924 17.954zm-1.5.7l-49.951 23.371a3.5 3.5 0 0 0-2.407-1.2l-.1-.2-6.319-109.932 85.559 37.413zm-50.854 28.386l21.054 27.786-83.75 157.676-.8-.8 12.036-123.473 48.547-60.984a2.776 2.776 0 0 0 1.3.3 7.521 7.521 0 0 0 1.606-.503zm-51.255 59.279l3.611-37.413 43.625-22.471.3.3zm-1.1 1.4l-61.887 77.635-57.373-52.358 122.972-63.492zm-62.489 78.437L794.2 775.242l-52.459-7.924-18.757-60.282 44.033-22.769zm-84.054 30.091l-102.419-15.441v-.2a1.708 1.708 0 0 0-.1-.7l83.853-43.331zm-102.82-17.246l73.522-76.632 10.331 33.2zm-.7-.8l-.1-.1L693.3 620.174a2.777 2.777 0 0 0 .9.1 1.272 1.272 0 0 0 .6-.1l16.149 51.857zm-.9-.6c-.2-.1-.3-.1-.5-.2 1.3-14.042 4.012-70.914 6.419-126.783l48.848-4.313a3.13 3.13 0 0 0 1.4 2.608zm70.513 70.413l30.291 28.085L726.8 859.9l-67.4-31.295zM727.1 861.2l36.711 17.052-6.118 5.015-47.343-.9zm29.289 23.07L619.572 996.11l89.872-112.841zm19.058 2.207a3.492 3.492 0 0 0 1.5.7l-7.121 62.388-150.655 48.451zm2.407.7a3.1 3.1 0 0 0 2.006-1.1L845.756 925l-75.027 24.173zm113.342 11.334l1.6 11.234-13.34 4.313zm.8-1.1l10.933-14.544 76.832-1.1-86.061 27.781zm87.866-16.65l-76.13 1.1 32.4-43.13 44.234 40.322a3.382 3.382 0 0 0-.505 1.708zm-43.13-42.829l31.5-41.927 90.473 7.422 12.036 38.015-84.756 38.015a3.125 3.125 0 0 0-2.909-1.806 3.231 3.231 0 0 0-2.006.7zm50.051 44.535l63.091 71.315-64.094 96.792a3.567 3.567 0 0 0-.9-.4zm1.4.1l97.6 17.052-35.307 53.361zm98.7 17.252l2.608.5 47.744 150.154c-.2.1-.3.1-.4.2l-85.659-96.893zm3.812.6l51.756 9.027-4.012 140.625h-.2zM936.731 586.572l-29.59-114.847 4.514 1.1 19.057 8.325zm-29.89-115.65v-.2l.8.3zm10.331 3.31l13.24 3.21.2 2.608zm-3.912-1.705l-6.419-2.809 23.17 1.1.3 5.818zm-6.419-3.611a2.511 2.511 0 0 0-.8-1.805l22.568-22.468 1.5 25.477zm-.5 3.912l30.693 118.959v.2a3.25 3.25 0 0 0-2.307 3.109 2.775 2.775 0 0 0 .3 1.3L892.1 618.569zm-15.348 146.243l-123.875 63.993-34.7-31.7 172.02-178.941a3.135 3.135 0 0 0 1-.5zm-124.777 64.494l-43.532 22.468-10.532-33.6 19.559-20.362zm-54.364-12.237L695.8 619.873a1.384 1.384 0 0 0 .4-.3l34.805 31.8zM695 613.955a2.21 2.21 0 0 0-.8-.1 3.25 3.25 0 0 0-3.109 2.307l-48.948 4.413c2.307-51.756 4.413-102.51 5.015-117.154a3.665 3.665 0 0 0 2.708-3.41l105.519.9a3.191 3.191 0 0 0 1.5 2.508zm61.085-115.349l-65.1-25.477 55.969-34.5 11.037 58.771a3.877 3.877 0 0 0-1.906 1.206zm-.3.6a.521.521 0 0 0-.2.4c0 .1-.1.3-.1.4l-105.82-.9c0-.1-.1-.3-.1-.4l40.723-25.076zm-106.823-1.4l-.3-.3 21.465-31.7 18.857 7.422zm-1.1-.9a4.2 4.2 0 0 0-1.5-.4.752.752 0 0 0-.5.1l-10.13-42.93a2.342 2.342 0 0 0 1.2-1l32.3 12.638zm-3.009-.1a4 4 0 0 0-1.705 1.705L567.816 463.6l63.091-12.237a3.081 3.081 0 0 0 2.106 2.307 2.925 2.925 0 0 0 1.6.1zm-2.006 2.708v.5a3.519 3.519 0 0 0 3.31 3.511c-.6 14.444-2.708 65.2-5.015 117.154l-38.717 3.41c-12.839-53.562-26.881-113.343-37.112-156.974a3.4 3.4 0 0 0 1.6-1.906 2.775 2.775 0 0 0 .1-.9zm-10.231 248.15l-93.487-115.353a3.376 3.376 0 0 0 .8-1.705l61.686-5.517c20.666 85.96 28.085 113.643 30.997 122.57zm-29.991-122.57l38.416-3.41c-2.508 56.069-5.216 113.042-6.419 126.683a2.36 2.36 0 0 0-.8.2c-4.022-12.041-16.858-63.698-31.201-123.478zm31.9 129.692l-4.625 60.177-46.036-21.363a1.451 1.451 0 0 0 .2-.7 3.943 3.943 0 0 0-.9-3.31l49.75-35.608a3.476 3.476 0 0 0 1.603.799zM583.363 794.4l46.44 21.565-1.4 17.954-37.915 7.824L582.761 795a.9.9 0 0 0 .602-.6zm46.037 40.423l28.386-5.818 68.407 31.8-17.152 21.565-83.151-1.705zm78.738 48.446l-90.271 113.343a3.563 3.563 0 0 0-.9-.4l8.827-114.546zm-91.075 119.06a2.558 2.558 0 0 0 1.2-.8l49.851 57.774-51.355-9.93c.005-22.873.105-40.224.306-47.044zm3.21 0l131.2 73.121-81.749-15.75zm132.9 74.425a1.708 1.708 0 0 0-.1.7 3.463 3.463 0 0 0 .5 1.805l-33.6 38.717-49.249-57.073zm-134.206-76.23a2.926 2.926 0 0 0 .2-.9l147.446-22.368-11.033 97.194a2.991 2.991 0 0 0-1.705 1.2zm3.31-2.407l147.345-47.544-2.909 25.577zm148.449-47.845L847.06 925.7l15.547 9.128-22.769 30.191-72.118 10.93zm93.382-15.748l14.343-19.058L893 910.752l6.219 42.529a2.552 2.552 0 0 0-1.1 1.2zm29.79-23.972l86.461-27.884a3.032 3.032 0 0 0 1.906 1.4l-79.541 69.41a3 3 0 0 0-1.805-.6 1.488 1.488 0 0 0-.7.1zm7.021 48.848a2.775 2.775 0 0 0 1.6-.5l79.039 92.379a3.237 3.237 0 0 0-.8 2.106 1.273 1.273 0 0 0 .1.6l-84.957 8.526zm80.343 95.689a3.2 3.2 0 0 0 2.809 1.6 2.776 2.776 0 0 0 1.3-.3l54.063 104.917-146.134-43.829 2.608-53.863zm5.015.8a3.172 3.172 0 0 0 .3-4.514l64.094-96.692 85.458 96.692a3.237 3.237 0 0 0-.8 2.106 3.348 3.348 0 0 0 1.2 2.508l-74.219 112.141-21.465-6.419zm75.428 113.142l-8.426 12.739a3.566 3.566 0 0 0-1-.2 3.607 3.607 0 0 0-1.1.2l-9.729-18.857zm-9.328 19.058a3.167 3.167 0 0 0 1.906-.7l144.941 137.311-155.069-86.863zm1.806-5.918l8.526-12.839 19.659 5.918-27.483 7.723a2.7 2.7 0 0 0-.699-.801zm85.258-131.9l4.012-140.625 114.347 20.063 45.237 48.045-161.388 74.325a4.34 4.34 0 0 0-2.206-1.805zm164.2-71.717l.4.4-.1-.3 40.222 25.979-25.577 58.878-176.935-10.231v-.2zm-6.921-43.03l-10.431-61.987 96.491 42.428-10.331 23.872-12.438 6.821zm86.963-19.158l17.653 7.723-27.483 14.945zm.4-.9l13.039-30.091 31.6 23.872-26.38 14.343zm45.638-5.617l54.063 40.723 1.2 9.128-81.346-35.708zm46.741-21.365l26.279 75.127-18.054-13.641zm-1.805-8.125l44.936-41.425a3.563 3.563 0 0 0 1.6-1.1l2.808 1.5 55.267 69.009-61.486 63.392a3.238 3.238 0 0 0-2.106-.8 3.046 3.046 0 0 0-2.106.8l-9.328-7.021zm36.51 90.875l-5.517-2.407-.8-2.407zm1.5 1.805c0 .1-.1.2-.1.4l-5.617-1-.8-2.207zm-.2 1.3a2.8 2.8 0 0 0 .8 2.006l-3.21 5.015-2.808-7.924zm-2.006 8.225l3.611-5.517a3.031 3.031 0 0 0 1.6.5 3.3 3.3 0 0 0 1.906-.6l81.647 83.452-60.082 4.413zm118.558-12.137l65.3 81.446a4.44 4.44 0 0 0-1.2 1.5l-89.47 6.62zm.4-1.2l1.5-5.416 98.3-9.529a3.151 3.151 0 0 0 2.809 2.106l-35.207 94.887c-.2 0-.4-.1-.6-.1a3.568 3.568 0 0 0-1 .2zm102.309-19.258l-17.353-43.431 75.528-26.079c10.632 6.319 21.264 12.738 31.7 18.957l-86.562 51.957a3.2 3.2 0 0 0-2.708-1.4.64.64 0 0 0-.599-.003zm157.175 96.592l17.252 54.364-24.273-1.6-148.042-142.434zm-28.285-92.279l56.771-.9.2.2a3.322 3.322 0 0 0 3.11 2.809l1.906 1.705 65.2 144.537-98.2-56.772zm62.188 1.5a3.557 3.557 0 0 0 1.4-2.508c6.018-1.705 19.459-7.122 37.313-14.745l10.532 62.188-48.447-43.331zm39.62-17.654c12.839-5.517 27.985-12.036 44.334-19.258l33.5 26.079 9.529 123.272a2.635 2.635 0 0 0-1.5.7l-75.026-67.1zm45.337-19.76c9.529-4.213 19.358-8.626 29.389-13.14l2.909 38.316zm26.48-64.8l30.793-27.383 5.918-.1 25.778 51.155c-19.359 8.827-39.419 17.854-58.677 26.58zm36.31-28.486h-4.313l3.009-2.608zm-40.222-81.847l60.082 59.179-20.863 18.556zm39.62 78.537l21.064-18.757 21.866 21.565-41.325.5zm-41.024-81.346l-.7-1.4 87.966 40.522-24.975 22.267zm39.82 81.145l-4.012 3.611-32.6.3-6.62-86.06a2.509 2.509 0 0 0 .7-.4l1.906 1.906zm-43.331-88.166l-.3-.5 3.209-75.729L2086 618.268l39.62 87.765-98.3 29.389a3.732 3.732 0 0 0-1.899-2.006zm60.184-118.447l2.207.9-1.4.9zm3.21.2l-3.812-1.5-14.143-31.295 68.507-3.41v.1a3.383 3.383 0 0 0 .5 1.705zm-28.286-55.869l-24.674-54.565a3.059 3.059 0 0 0 1.2-3.912c-.1-.1-.2-.2-.2-.3l19.961-15.146 83.151 91.577-.1.1zm-24.072-59.279a3.115 3.115 0 0 0-1.806-.9l1.2-36.711 20.562 22.568zm-2.508-1a4.41 4.41 0 0 0-1 .2h-.1l-67.7-114.747 70.011 77.033zm-6.52 1.5h-76.832l2.508-23.27zm-77.835 0h-79.741l22.167-39.519a5.871 5.871 0 0 0 1.3-.2 2.973 2.973 0 0 0 1.6-1.705l57.173 17.854zm-80.944 0h-70.915c0-.2-.1-.3-.2-.5s-.2-.3-.3-.5l92.78-39.319a2.084 2.084 0 0 0 1 .6zm-109.832-24.574l130.294-17.352a.9.9 0 0 0 .1.5 1.757 1.757 0 0 0 .4.5l-92.78 39.319a3.06 3.06 0 0 0-3.21-.6l-36.41-19.659a3.162 3.162 0 0 0 1.608-2.706zm34.3 22.668a3.262 3.262 0 0 0-1.3 1.3l-.2.6a5.718 5.718 0 0 0-.1 1.3l-14.143 4.714-43.832-21.866 19.462-6.909a3.051 3.051 0 0 0 3.611 1.2zm-97.494-42.529l-44.635-14.544a2.981 2.981 0 0 0-.1-1.6l48.948-22.769zm0 .7l-1.2 8.325-44.133-22.067a5.576 5.576 0 0 0 .6-.8zm-1.4 9.328l-4.413 31.295a5.033 5.033 0 0 0-1.2.2l-3.009-5.015-35.307-48.547zm-60.382 21.766l-56.671-12.036 68.106-33.3a3.065 3.065 0 0 0 2.708 1.5l.7 1zm-57.474-12.337l-15.146-4.915 7.723-14.243 76.03-14.544v.2zm-7.824-19.76l-6.821 1.3 7.924-24.675 13.341-3.009zm1.3-24.273l3.31-10.532 8.726-9.629 9.93 1.3-8.526 15.748zm22.769-18.757l36.209 4.714v.6l-44.635 10.03zm.3-.5l4.213-7.623 32.1 11.635c-.1.1-.1.2-.2.3a.6.6 0 0 1-.1.4zm-.7-.1l-9.83-1.3 7.924-8.726 6.119 2.207zm-12.939-12.738l-11.836 1.4 2.106-4.112 9.93 2.006zm-10.131-3.711l-5.316-1 8.426-5.015zm-.4.8l-2.307 4.413-16.149 1.906 12.438-7.422zm-2.508 4.915l-3.611 6.921-17.954-2.106 4.614-2.808zm-22.769 4.614l-6.921-.8v-.3l10.933-1.3zm-.8.4l-23.872 14.243-1.906-3.912 13.742-9.629a3.279 3.279 0 0 0 1.5 1.1 3.44 3.44 0 0 0 4.313-2.106.6.6 0 0 1 .1-.4zm-26.079 9.83l-5.818-11.936 19.058 1a2.985 2.985 0 0 0 .5 1.5zm13.34-11.836l-19.559-1-3.31-6.821 22.869 7.623zm-20.462-1.1l-1.2-.1-3.41-7.422 1.1.4zm.4.9l6.118 12.538-1.2.8-6.118-13.441zm6.219 18.055l-28.179 16.856-1.806-.9 28.286-19.76zm-28.887 17.352l-3.812 2.307-1.6-.6 3.611-2.508zm-6.018 1.4l-14.945-5.918-15.347-9.428 1.2-3.21 32.7 16.048zm-30.793-15.748l-8.726-5.416-1.5-3.41 11.435 5.617zm-7.623-1.6l-21.458-15.442 20.161 12.438zm-.4-2.407l7.021 4.313a3.6 3.6 0 0 0-1.1.2 3.459 3.459 0 0 0-1.2.9l-3.31-2.407zm4.514 5.818a3.381 3.381 0 0 0-.5 1.705l-.6.1-1.705-3.711zm-.6 4.313l-8.626 9.428-11.033-8.626 18.857-2.608zm-9.128 9.83l-11.535 12.538-27.584-2.608 4.815-15.647 22.869-3.109zm-34-6.52l5.517-15.748 16.249 12.738zm-.6.1l-72.218 9.93-9.529-.9 77.133-33.3 10.331 8.125zm-83.151 8.927l-3.912-.4 27.583-19.359 52.659-15.146 1.5 1.2zm23.571-20.562l-3.511 1 14.043-10.432 3.811-.6zm-2.006 1.4l-26.58 18.656-.6-.1 23.772-17.653zm-26.58 19.559l3.31.3-4.313 1.906a2.365 2.365 0 0 0-.8-.9zm-2.407.8c-.1-.1-.2-.1-.4-.1l1.2-.9.5.1zm-8.325 5.918l2.207-1.705.3-.1zm1-2.006l-3.31.7-3.811-1.906 8.425.3zm-4.413.9l-14.644 3.009 2.909-5.416 7.222.2zm-15.046 3.109l-1.5.3-.4-.1 2.207-5.818 2.608.1zm-.5-6.018l-4.413-.1 5.316-2.207zm-6.52-.2l-11.234-.4c0-.1-.1-.2-.1-.4l16.048-4.614 3.31 1.6-.1.4zm6.119-5.517l2.507.3-.3.8zm1.2-.6l1.805-.5-.3.7zm-2.106-.2l-1-.1-18.155-8.927 22.468 8.024zm-3.109-.3l-17.453-1.805-2.507-5.918h.1a3.049 3.049 0 0 0 1.3-1.2zm-18.456-2.006l-.3-.6zm-.2.7l1.3 4.614a.368.368 0 0 0-.3.1 3.088 3.088 0 0 0-1.806 3.711l-6.018-9.228zm1.906 13.942l-15.948 6.72-2.307-.9 15.447-10.03zm-16.851 7.122l-5.416 2.006v-.2c0-.1-.1-.2-.2-.3l3.611-2.307zm-5.918 1.2a2.342 2.342 0 0 0-.7-.7l1.5-2.508 2.508 1zm.5 2.808l29.288 7.824L1147.769 497l87.966-32.3a3.222 3.222 0 0 0 3.31 1.2 3.12 3.12 0 0 0 2.206-2.1zM1184.38 591.07l-40.322-17.653.2-72.018zm.6 1.3l10.733 24.073-51.857-4.514.1-37.413zm11.234 25.176l11.033 24.674-48.447 18.88-15.045-4.514.1-43.632zM1157.3 661.6l-13.541 5.216v-9.328zm1.6.5l63.191 18.957-76.331 127.987a3.239 3.239 0 0 0-2.407-2.508l.4-138.519zm-15.948-166.3a3.413 3.413 0 0 0-1.4-.2l-25.076-45.638L1163.717 430a4.035 4.035 0 0 0 1.3 1.3l.5.3a.1.1 0 0 1 .1.1h.4l-21.164 59.38zm-86.963-17.854l82.65 19.86v.1a3.342 3.342 0 0 0 .1 2.207h-108.927a2.783 2.783 0 0 0-1.5-1.3l23.872-19.158a3.312 3.312 0 0 0 3.807-1.711zm-28.286 20.562a3.576 3.576 0 0 0-3.41.9l-92.881-22.568-.3-6.018 118.558 5.717a3.285 3.285 0 0 0 2.006 2.808zm-98.2-55.869l-2.303-40.023 26.68 15.647zm-1 .9l-22.969 22.969a5.6 5.6 0 0 0-.8-.5L925.6 403.82l.6-.6zm-3.711-38.918L905.436 462.4l13.14-51.957zm-20.863 61.185a3.219 3.219 0 0 0-2.708.7l-21.365-20.562 37.915-35.006zm-3.21 1.2a8.805 8.805 0 0 0-.6 1 2.783 2.783 0 0 0 0 1.805l-59.779 12.647 39.118-36.009zm-.3 3.711a3.519 3.519 0 0 0 1.906 1.705 1.271 1.271 0 0 0 .6.1L731.711 650.666l-34.805-31.8a3.52 3.52 0 0 0 .6-1.805 3.237 3.237 0 0 0-.8-2.106l142.43-131.4zM759.9 497.4a4.116 4.116 0 0 0-1.1-.1l-11.04-59.176 70.012-43.13L759.9 497.4zm-12.337-60.282l-12.538-67.2v-.2a3.4 3.4 0 0 0 2.407-2.106l80.343 21.665a3.508 3.508 0 0 0 1.4 3.41l-.3.5zm70.212-48.446l-80.343-21.666a3.964 3.964 0 0 0-.3-2.207l46.641-34.3 35.106 56.772a2.594 2.594 0 0 0-1.108 1.403zM736.626 364.1a3.4 3.4 0 0 0-1.4-.9.6.6 0 0 1-.4-.1l9.83-93.081a4.026 4.026 0 0 0 1.5-.3l37.211 59.981zm10.131 73.422l-56.972 35.106-19.258-7.523 63.793-94.185zM669.624 464.7l-32.4-12.638a.521.521 0 0 0 .2-.4 3.95 3.95 0 0 0-.4-3.009l94.786-79.741a5.689 5.689 0 0 0 1.3.8 2.209 2.209 0 0 0 .8.1zm63.692-101.5l-31.9-83.553L727 272.222l6.419 90.875c.098.103-.003.103-.103.103zm-.7.2a2.95 2.95 0 0 0-1.4 1.5L592.19 312.745a5.717 5.717 0 0 0 .1-1.3l108.428-31.5zm-140.627-52.762v-.1l96.792-61.987 11.635 30.592zm-.5-.8l84.154-88.768a8.809 8.809 0 0 0 1 .6 3.093 3.093 0 0 0 1.906 0l9.93 26.079zm41.325 137.616a3.561 3.561 0 0 0-1.805 2.006 2.578 2.578 0 0 0-.1 1.5l-63.795 12.34-.2-.1a3.111 3.111 0 0 0-2.106-2.207h-.1l24.073-145.64h.2l.8.5zM564 467.613a.6.6 0 0 0 .4-.1c3.511 15.246 18.255 78.136 33.1 140.224a1275.72 1275.72 0 0 1 3.912 16.349l-61.48 5.514a3.248 3.248 0 0 0-2.307-2.608zm-25.577 165.3l94.285 116.352a3.383 3.383 0 0 0-.9 2.207 3.464 3.464 0 0 0 .5 1.805l-49.948 35.607-.6-.3-.1-.9-46.34-151.257 1.1-3.109h.3a2.551 2.551 0 0 0 1.707-.406zm-3.611 2.006l-.7-2.307.3-.2a3.6 3.6 0 0 0 1 .7zm45.839 153.063l.1.4a3.8 3.8 0 0 0-3.812 2.508l-89.069-17.954v-.3a3.465 3.465 0 0 0-1.4-2.708l48.246-131.8zM487.57 773.94l89.17 18.055a3.708 3.708 0 0 0 3.009 3.912 3.313 3.313 0 0 0 2.207-.2l7.723 46.34-59.079 12.034-46.44-78.236h.4a3.361 3.361 0 0 0 3.013-1.906zm56.671 105.118l-119.06-2.307L530.1 855.184zM531.1 854.984l58.677-12.036 6.118 37.112-50.453-1zm59.58-12.237l37.614-7.723-3.41 45.638-27.985-.5zm34.1 38.918l-8.726 113.643L597.1 881.062zm-8.024 168.91l52.458 10.131 50.151 58.075-101.397 116.652a5.586 5.586 0 0 0-.8-.5c-.204-52.058-.404-132.301-.404-184.359zm103.312 68.908l21.966 25.377-23.27 120.665-99.4-27.684a3.382 3.382 0 0 0-.5-1.705zm.6-.7l33.6-38.717.1.1-12.237 63.592zm34.7-38.215a2.97 2.97 0 0 0 1 .2h.3l121.768 220.867-135.391-156.976zm1.2-6.319l11.134-97.194 71.416-10.833-81.546 108.227a4.423 4.423 0 0 0-.986-.203zm83.872-108.33l57.373-8.726c0 .1.1.2.1.3l-139.02 116.853zm57.975-7.623a3.776 3.776 0 0 0 1.5.9L895 1062.711l-135.5 13.641a4.07 4.07 0 0 0-.5-.9zm-3.515 105.418l-2.608 53.462-132.7-39.82zm-2.608 54.565l-1.6 33.6-130.8-73.321zm1 .3l146.844 43.933 10.13 19.76a3.137 3.137 0 0 0-1.3 2.508.9.9 0 0 0 .1.5l-41.526 32-115.85-64.9zm156.072 67.805a2.955 2.955 0 0 0 2.006 1.6l-8.125 49.349-34.7-19.459zm-5.316 52.559l157.676 88.367a1.272 1.272 0 0 0-.1.6l-170.716-8.526zm10.933-52.258a2.8 2.8 0 0 0 .6-1.806 2.969 2.969 0 0 0-.2-1l28.787-8.024 90.473 27.082 28.988 122.27a2.442 2.442 0 0 0-1.4 1zm120.765 16.55l72.82 21.866-43.431 100h-.6zm73.322 20.863l-73.522-22.067-11.535-48.647 131.7-36.811zm-85.358-71.616l-22.969-96.692a2.86 2.86 0 0 0 .8-1.4l176.634 10.231-22.067 50.854zm156.072-88.868l25.377-58.377 101.708 65.8zm24.875-59.881l-40.121-25.878 55.568-30.191 8.325 1.4zm16.851-56.872l10.231-5.617-3.009 6.821zm11.736-6.319l29.288-15.948 82.65 36.31 1 7.824-116.342-20.362zm112.847 19.658l-1.2-8.826 18.456 13.942 1 2.909zm18.757 9.328l.9 2.608-18.556-3.21-1-7.523zm1.3 3.711l3.21 9.228-16.851 25.978-5.115-38.416zm-6.62 94.385l-45.136 3.31a3.518 3.518 0 0 0-.5-.8l38.115-58.978zm-44.735 4.915l45.738 3.009 2.107 15.948-48.146-17.854a2.289 2.289 0 0 0 .308-1.101zm45.839-4.012l37.915-2.808 4.012 11.435-41.124-2.708zm38.918-2.808l60.583-4.514 1.705 1.705-5.015 17.854-53.161-3.41zm63.091-2.006l18.155 18.556-22.97-1.5zm.3-1.1l.5-1.6 89.571-6.62v.1a3.326 3.326 0 0 0 2.708 3.21l1.906 29.69-75.227-4.915zm93.783-4.915a3.037 3.037 0 0 0 2.407-1.806l106.221 38.416-106.723-6.921zm2.708-2.808v-.5a3.174 3.174 0 0 0-1.705-2.808l35.006-94.285 147.546 141.929-71.416-4.614zm181.95 45.337l33.8 32.5c0 .1-.1.1-.1.2l-102.811-37.212zm1.6.1l23.471 1.5 9.529 30.091-.1.1zm24.574 1.6l75.027 4.915-62.087 25.878a3.185 3.185 0 0 0-2.608-1.3 3.562 3.562 0 0 0-1 .2zm17.052-142.23l47.644 42.629 16.951 100.7zm48.848 43.732l74.124 66.3a3.464 3.464 0 0 0-.5 1.806 3.3 3.3 0 0 0 .6 1.906c-8.225 5.316-34.906 20.462-54.765 31.5a2.993 2.993 0 0 0-2.608-1.5zm19.96 103.212l204.217 88.467c0 .2-.1.5-.1.7 0 .3.1.6.1.9l-100.4 35.507-104.611-123.665a3.346 3.346 0 0 0 .802-1.906zm.1-1c18.857-10.532 46.039-25.878 54.766-31.6a3.466 3.466 0 0 0 2.006.7 3.506 3.506 0 0 0 2.207-.8l145.54 120.263v.1zm57.273-37.413l-9.428-122.47 78.337 60.984a4.213 4.213 0 0 0-.4 1.5 3.231 3.231 0 0 0 .7 2.006l-67.3 58.878a5.593 5.593 0 0 0-1.898-.898zm21.373-242.128l41.826-.5 30.392 29.991c-14.444 6.62-30.191 13.842-46.541 21.264zm19.66-23.672l25.276-22.468 93.482 43.03c0 .2-.1.4-.1.6l-96.191 1.1zM2117 778.753l-89.37-41.124 115.75 14.243a3.608 3.608 0 0 0 1.3 2.307zm26.379-27.884l-115.951-14.243v-.2l98.6-29.389 18.857 41.826a2.885 2.885 0 0 0-1.508 2.006zm-16.349-44.234l18.155-5.416 1.1 47.042a.6.6 0 0 0-.4.1zm19.158-5.717l86.662-25.878c.1.2.1.3.2.5l-84.154 73.723a2.6 2.6 0 0 0-1.705-.9zm-1.5-63.893l-1.3-54.966a3.706 3.706 0 0 0 1.1-.5l88.869 89.872c-.1.1-.2.2-.2.3zm-1-.3l-53.662-21.064 50.552-34.1a3.266 3.266 0 0 0 1.906.8zm-.9-290.979v.1l-79.54-77.635 8.325-28.887zm-71.128-107.125l7.122-24.675a2.471 2.471 0 0 0 1.705-.2 2.408 2.408 0 0 0 .8-.6l61.787 131.9zm70.915 108.026a2.544 2.544 0 0 0 .2 1.2l-101.106 1.3a2.766 2.766 0 0 0-1.4-1.2l22.669-78.939zm-100.6 3.21l101.105-1.3a3.115 3.115 0 0 0 1.5 1.3l-12.237 75.127a2.976 2.976 0 0 0-1.6.2 4.451 4.451 0 0 0-1.1.8l-87.866-73.723a2.879 2.879 0 0 0 .194-2.404zm103.412.1h.7l54.665 73.121.1 1.4a2.845 2.845 0 0 0-1.2 2.006l-64.495 1.705a2.968 2.968 0 0 0-.2-1.3 3.332 3.332 0 0 0-1.806-1.705zm1.4-.2h.1a3.176 3.176 0 0 0 1.705-1.906l47.644-10.131 4.413 84.154zm2.006-2.608a3.9 3.9 0 0 0-.2-1.5 3.176 3.176 0 0 0-1.906-1.705l42.027-151.357 7.523 144.436zm40.522-159.081h-.8l.1 2.508-42.529 153.163a2.975 2.975 0 0 0-1.6.2 2.415 2.415 0 0 0-.8.6l-61.787-131.9a3.709 3.709 0 0 0 .6-2.106l105.118-24.875v.1a3.177 3.177 0 0 0 1.906 1.705zm-107.124 21.766v-.2a3.459 3.459 0 0 0-.9-1.2l22.568-34.3 83.452 10.432c0 .1.1.2.1.3zm-1.5-1.705a3.189 3.189 0 0 0-2.708-.1 4.685 4.685 0 0 0-.9.6l-13.742-12.739 24.173-23.672 15.547 1.906zm-2.608 5.717l-7.021 24.474-14.344-7.623 20.462-17.553a2.184 2.184 0 0 0 .9.702zm-7.322 25.176l-8.425 29.088-24.173-4.915-.2-16.55 18.055-15.447zm-8.526 29.79l-22.669 78.939h-.2l-1.1-83.653zm-21.966 84.856a4.458 4.458 0 0 0 1.1-.8l87.866 73.723a3.2 3.2 0 0 0-.2 2.708c.1.1.2.2.2.3l-72.118 54.665-21.264-23.371 3.41-107.023a2.969 2.969 0 0 0 1.003-.202zm-5.115 106.422l-71.717-78.939a3.091 3.091 0 0 0 .9-3.009l71.817-26.079a3.016 3.016 0 0 0 2.407 1.705zm2.608-112.139a2.741 2.741 0 0 0-1.2.9l-45.437-27.784 29.389-57.775a2.2 2.2 0 0 0 1.4.1l16.149 84.455a.5.5 0 0 0-.305.104zm-16.149-90.774a2.671 2.671 0 0 0-1.2.3 3.032 3.032 0 0 0-1.705 1.805l-48.848-12.538 54.164-20.362zm-3.009 2.708c0 .1-.1.2-.1.4l-102.309 8.526-.7-1.705 53.261-20.061zm-102.109 9.529l102.209-8.526a1.958 1.958 0 0 0 .1.7 3.048 3.048 0 0 0 1.2 1.3l-29.389 57.775-70.915-43.526zm73.723 51.957l-27.784 54.665a3.088 3.088 0 0 0-1.906 0l-40.428-97.595zm-27.984 60.583l-10.03 94.185-57.073-17.854a2.539 2.539 0 0 0-.2-1.705 4.72 4.72 0 0 0-.6-.9l65.2-74.325a3.336 3.336 0 0 0 2.699.599zm-68.407 73.422a3.367 3.367 0 0 0-2.608-.5l-19.76-57.373a2.968 2.968 0 0 0 1.805-3.109l84.957-14.745a.6.6 0 0 0 .1.4 4.721 4.721 0 0 0 .6.9zm-20.562-61.486a.6.6 0 0 0-.1-.4 2.712 2.712 0 0 0-1.705-1.6l.4-1.2 76.632-9.729zm-2.006-3.812l-3.41.4-2.508-3.711 38.015-105.519zm-4.112.5l-.8.1a1.273 1.273 0 0 0-.1-.6 3.132 3.132 0 0 0-1.5-1.5l.4-1zm-1.4 6.921l-24.273 17.252-3.511-2.909 23.17-18.255a3.135 3.135 0 0 0 3.21.7zm-28.385 13.842l-24.875-20.963 45.337 1.3 2.608.7a.368.368 0 0 0 .1.3.521.521 0 0 1 .2.4zm22.769-19.659zm-3.41-.9L1818.6 380.65l41.726 10.231zm-2.307-.1l-42.93-1.2-16.55-13.942c.1-.2.3-.4.4-.6zm-17.654 21.064l-78.939 61.987a4.715 4.715 0 0 0-.9-.6L1787 389.577l24.274.7zm-80.343 61.285a2.8 2.8 0 0 0-2.006.1h-.1l-37.313-63.793 43.933-20.362 25.377.7zm4.413-84.957l-53.261-1.5 81.847-12.036v.2zm28.386-13.942l-82.75 12.137a.906.906 0 0 0-.1-.5c-.1-.2-.3-.4-.4-.6l42.428-40.723 41.225 28.085a3.78 3.78 0 0 0-.412 1.599zm-83.653 10.432a2.212 2.212 0 0 0-1.5-.6l2.909-67.8 40.823 27.884zm-.8 5.216l11.234 19.058-15.346 7.122 2.808-25.878a2.777 2.777 0 0 0 1.293-.305zm-4.714 26.58l-49.449 22.969c-.1-.1-.1-.2-.2-.3l51.155-49.65a6.128 6.128 0 0 0 1.4.7zm-51.756 21.465a3.414 3.414 0 0 0-1.4.2l-27.683-56.872 41.726 3.009zm-2.508.9l-11.234-18.556.1-.1 11.435 18.355zm-16.45-22.769l-32.1-11.635 5.717-10.432 27.082 21.264a1.857 1.857 0 0 0-.71.804zm-32.7-11.936l-6.018-2.207 9.429-10.331 2.307 1.805zm-6.62-2.407l-3.009-1.1c.1-.1.1-.2.2-.3a3.44 3.44 0 0 0-2.106-4.313h-.3l2.307-12.337a3.729 3.729 0 0 0 2.307-.5l10.331 8.125zm-5.617-5.818a3.512 3.512 0 0 0-3.711 2.207h-.2l4.815-15.146a8.819 8.819 0 0 0 1 .6h.3zm-11.334-7.523l-10.331 6.118-4.113-.8 15.347-7.021zm-11.434 6.821l-13.24 7.924-11.936 1.4a1.423 1.423 0 0 0-.2-.6l20.964-9.529zm-25.477 8.325a3.4 3.4 0 0 0-1.906-1.6 3.321 3.321 0 0 0-4.113 1.805l-23.471-7.924-6.219-12.738 56.07 11.134zm-30.593-8.024l-1-.3-5.617-12.337.5.1zm1.906 7.824l-47.243-2.508 6.62-17.653 37.212 12.438zm.4.9l6.319 13.842-28.687 19.96-33.1-16.249 7.523-20.161zm-55.969 17.353l-12.137-5.918-6.921-15.346 26.48 1.4zm-11.133-2.106l-19.96-12.337 18.456 9.027zm2.307 5.015l2.006 4.514-19.359 2.708-16.851-13.24 4.313-12.137a2.8 2.8 0 0 0 2.006-.1 3.46 3.46 0 0 0 1.2-.9zm-34.6-6.319l-9.93-7.723 12.738-5.517a2.958 2.958 0 0 0 1.4 1.3zm-10.532-8.225l-1.5-1.1 12.237-3.511zm-2.307-1.806l-1.4-1.1 12.839-2.106zm-.7.3l-49.85 14.343 13.742-9.729 34.5-5.818zm-42.027 4.815l-5.617.9 13.14-6.52zm-1.4 1l-14.544 10.732-27.182 7.824 35.106-17.453zm-57.474 25.276a4.014 4.014 0 0 0-1.2-1v-.1l5.617-1.6zm.6 3.21v-.3l12.638 4.514-.9.6-9.83-.3-4.714-2.307a3.251 3.251 0 0 0 2.787-2.201zm.2 4.514l-6.118-.2 1.2-2.207zm-6.821-5.617c0 .3.1.6.1.9l-.7.3-.2-.1.4-1.1zm0-.7l.3-.8h.1c-.1.1-.1.3-.2.4v.4zm-.3-1.705l-.4.1-25.176-9.027a1.416 1.416 0 0 0 .1-.9l12.939-2.207 12.638 11.735zm-25.578-10.732a.369.369 0 0 0-.1-.3 3.087 3.087 0 0 0-4.113-1.6l-10.432-25.076 26.982 24.976zm-2.708 4.012l1.2 2.808.8 2.808-6.921-.7 3.31-5.216a3.818 3.818 0 0 0 1.593.303zm1.2 15.848l-15.748 10.131-2.909-1.1 11.936-19.158zm-18.958 8.827l-71.63-27.778v-.2l83.552 8.827zm-.4.6l-1.5 2.407a3.606 3.606 0 0 0-2.708-.2 3.194 3.194 0 0 0-1.705 4.012l-90.574 33.3a3.85 3.85 0 0 0-1.1-1.1l23.17-64.395a3.506 3.506 0 0 0 2.808-1.906zm-72.318-31.9a.76.76 0 0 0-.4-.2l14.143-27.684zm-1.3-.7a3.8 3.8 0 0 0-1.5 0l-18.656-57.072 44.936-7.121zm-3.711 1.4c-.1.1-.1.2-.2.3l-55.768-20.362-5.517-28.386a3.935 3.935 0 0 0 1.4-.8zm-56.771-20.362l-17.252-6.319 10.431-21.665h.1a3.414 3.414 0 0 0 1.4.2zm-8.024-33.6l-49.55-40.121 41.826-34 9.429 73.221a2.8 2.8 0 0 0-1.725.909zm-.5.6a4.371 4.371 0 0 0-.4.7c-.1.2 0 .4-.1.6l-90.874-5.617a3.38 3.38 0 0 0-.5-1.705l42.127-34.2zm-91.376-3.711l89.871 5.517-57.674 6.52-32.3-11.735a.367.367 0 0 1 .081-.291zm81.647 30.994l-34.7 72.72h-.1a3.341 3.341 0 0 0-2.207.1l-40.121-87.665 27.483-3.109zM1051.4 473.42a5.5 5.5 0 0 0-.9.7l-91.3-60.069 25.677-25.577 26.279-2.909zm-93.382-59.179l-3.511 3.511-27.307-16.139v-.5l-.3.3-.3-.2 1.2-3.611a3.331 3.331 0 0 0 3.41-1.1zm-32-13.34l-1.705-1c0-.1.1-.2.2-.3a3.088 3.088 0 0 0 0-1.906l1.906-.7a2.514 2.514 0 0 0 .7.4zm-.7-7.623c-.1.2 0 .4-.1.6h-.9l1.906-3.511.5 1.1a3.2 3.2 0 0 0-1.424 1.821zm-1.805.5l-3.711-.2-44.858-115.137L925.9 389.477zm-3.811 1.805a3.519 3.519 0 0 0-1.705 1.906c-.1.2 0 .3-.1.5l-82.85-7.222 84.054 3.511zm-1.806 3.009a3.436 3.436 0 0 0 2.307 3.21l-1.906 7.422-39.118 36.109-55.468-53.361a3.341 3.341 0 0 0 .6-1c.1-.2 0-.3.1-.5zm-39.219 47.243l-40.221 37.112-76.556 16.161a3.458 3.458 0 0 0-1.2-1.2l58.577-103.814 1.4-.9a3.3 3.3 0 0 0 2.508-.8zm-59.078-59.079L784.37 330l72.118-53.06-34.905 109.527a4.447 4.447 0 0 0-2.006.301zm-35.608-57.474l-37.112-59.981a4.441 4.441 0 0 0 1.2-1.5 1.706 1.706 0 0 0 .1-.7l111.637-.1-2.708 8.626zm76.609-62.376h5.918a2.844 2.844 0 0 0 .4 1.3l-8.827 6.52zm-.7-.7l-111.838.1c0-.1-.1-.3-.1-.4l52.96-18.456L860.5 264.3zm-112.139-1a3.56 3.56 0 0 0-2.006-1.805 5.868 5.868 0 0 0-1.3-.2l-5.517-33.3 60.683 17.152zM734.219 362.5l-6.419-90.478 13.742-4.012a3.411 3.411 0 0 0 2.006 1.906.6.6 0 0 1 .4.1zm7.222-96.893a2.925 2.925 0 0 0-.1 1.6l-13.541 3.912-1.2-17.252 15.242 11.033a5.756 5.756 0 0 0-.401.7zM727 271.42l-25.778 7.523-11.736-30.793 15.346-9.83 20.963 15.146zm-22.468-34l-23.972-17.252c.1-.2.3-.4.4-.6v-.1l39.82 5.918a3.664 3.664 0 0 0 .3 1.5zm-.5.3l-14.845 9.529-9.83-25.878a3.928 3.928 0 0 0 1-.8zm-25.281-22.57a3.647 3.647 0 0 0-2.909.4l-27.382-34.905 16.65-3.511 28.39 23.472-13.742 15.146a2.081 2.081 0 0 0-1.007-.602zm-3.41.8a3.818 3.818 0 0 0-.9 1.3v.2L558.086 200.1v-.3l89.671-18.957zm-1 2.407a3.505 3.505 0 0 0 .8 2.207l-84.154 88.668a3.136 3.136 0 0 0-1-.5 3.349 3.349 0 0 0-1.705-.1l-32.2-105.419a3.411 3.411 0 0 0 1.906-2.006v-.2zm-224.98-7.723l-22.067 2.307a2.674 2.674 0 0 0-.7-1.4l23.371-23.772zm.6-23.972l-23.571 23.872 22.468-30.994a4.365 4.365 0 0 0 .7.4c.2.1.4 0 .6.1zm-22.769 27.985a4.115 4.115 0 0 0 .1-1.1l21.966-2.307-.5 19.559-23.872-14.143a2.942 2.942 0 0 0 2.305-2.008zm-2.106 3.31L448.856 232l-3.109 116.452-20.662-130.494zm24.573 14.643l135.008 80.142-135.51 38.918a3.411 3.411 0 0 0-2.006-1.906c-.2-.1-.4 0-.6-.1zm-.8 125.078l37.112 121.066-60.784 12.738zm37.413 122.069L530.8 625.089l-111.738-99.1 5.918-33.6zm.9-.2l73.021-15.147a3.589 3.589 0 0 0 2.307 3.009c.1 0 .3.1.4.1l-26.278 159.385a3.137 3.137 0 0 0-2.508 1.3l-2.006-1.705zM533.713 629.1a3.607 3.607 0 0 0-.2 1.1 2.3 2.3 0 0 0 .4 1.4l-1-3.31zm.5 7.422l-48.747 133a2.93 2.93 0 0 0-.9-.2h-.5l-32.4-90.373 81.546-45.839zM529.5 854.281l-106.02 21.766a2.86 2.86 0 0 0-.8-1.4l58.978-100.6a3.136 3.136 0 0 0 .9 1.1zm-106.722 24.775l190.174 118.96a2.968 2.968 0 0 0-.2 1l-125.379.2-64.9-119.862q.154.003.305-.298zm.6-.8c.1-.2.1-.4.2-.5l121.267 2.407 69.109 116.653a1.209 1.209 0 0 0-.5.5zm122.672 1.904l50.051 1 19.058 115.05c-.1 0-.2.1-.3.1zm68.908 122.169a2.969 2.969 0 0 0 1 .2h.1c-.1 5.115-.3 17.453-.3 46.841l-27.483-5.316zm.8 48.045c0 16.75 0 38.918.1 68.407.1 51.355.3 103.212.4 115.95h-.2a3.563 3.563 0 0 0-1 .2l-68.206-125.981 41.024-63.993zm.2 190.877a1.962 1.962 0 0 0 .7-.1l21.866 93.984-71.015 6.72 47.544-100.8a2.392 2.392 0 0 0 .908.196zm1.6-.4a1.386 1.386 0 0 0 .4-.3l65.9 90.273-44.434 4.213zm1.1-1.1a3.564 3.564 0 0 0 .4-.9l99.4 27.684-12.036 62.088-21.465 2.006zm87.565 89.972l-4.614 23.772-15.948-21.866zm1.1-.1l174.226-16.55L753.176 1424.1l-50.653-69.51zm.2-1l11.936-61.787 162.09 45.136v.2zm12.036-62.79l23.17-119.962 138.017 159.983 2.006 3.711a2.594 2.594 0 0 0-1.1 1.4zm162.09 39.52L757.69 1080.565a3.336 3.336 0 0 0 1.4-1.2l131.5 73.723-7.422 154.166zm9.93-151.859l115.148 64.495-119.461 92.078a3.714 3.714 0 0 0-2.407-1.2l-.6-.7zm116.051 65.1l35.407 19.86-13.34 80.844-141.728-7.122a3.606 3.606 0 0 0-.2-1.1zm21.966 101.607l-11.535 69.711-128.388-75.328-1.3-1.5zm1 .1l170.917 8.526c0 .1.1.3.1.4l-138.117 87.364-44.416-26.091zm32.9 97.494l21.665 12.739-73.121 19.86zm1-.6l137.616-87.063a3.053 3.053 0 0 0 .8.8l-48.948 80.744-67.5 18.355zm139.321-85.759a2.776 2.776 0 0 0 .9.1c.3 0 .6-.1.9-.1l24.073 59.781-74.224 20.161zm2.708-.4a5.022 5.022 0 0 0 .8-.7l84.255 44.033-60.884 16.55zm164.6-11.134l151.257-8.325-162.873 44.323zm.3-1l16.751-51.957 141.427 42.428c0 .1-.1.2-.1.3l-2.508.7zm16.149-53.261l-94.586-28.386 155.57-160.585zM1292 1236.938l-41.927-12.538 46.942-108.127 151.558-42.428a1.561 1.561 0 0 0 .6.8zm156.674-166l-103.112-66.6 23.872-55.066 116.954 20.462 5.316 39.921-38.717 59.881a3.717 3.717 0 0 0-1.5-.4 3.474 3.474 0 0 0-2.809 1.8zm5.416 3.611l48.748 18.055 27.683 206.424c-13.541-44.434-68.908-200.1-77.334-223.676.306-.304.607-.504.907-.805zm47.444 1l41.325 2.708 11.334 32.3-50.453-18.656zm42.428 2.708l52.559 3.411-11.435 40.322-29.69-11.033zm40.924 44.735l-11.234 39.921-17.754-50.653zm1.2-.6l11.435-40.522 24.374 1.6 78.236 79.942a3.926 3.926 0 0 0-.8 1zm37.313-38.917l74.224 4.815 4.714 74.224h-.1a4.306 4.306 0 0 0-1.2.2zm75.227 4.915l110.133 7.121 106.02 38.416a1.957 1.957 0 0 0-.1.8v.2l-209.232 30.191a3.2 3.2 0 0 0-2.106-2.407zm6.219 79.34c10.131 8.626 47.042 40.121 83.954 71.215 62.589 52.659 81.045 67.1 86.762 70.814v.5a5.032 5.032 0 0 0 .2 1.2l-47.243 35.908-123.967-179.237a1.389 1.389 0 0 1 .301-.401zM1918 1137.938a3.232 3.232 0 0 0 3.21-3.21 4.267 4.267 0 0 0-.2-1.1l63.893-26.58 2.106.1a3.056 3.056 0 0 0 .8 1.6c-35.006 65.2-96.291 178.539-108.026 198.3-.1 0-.2-.1-.3-.1zm70.513-28.586a3.032 3.032 0 0 0 1.605.5 3.562 3.562 0 0 0 1-.2l.4.9-.2-1c.2-.1.3-.2.5-.3l104.416 123.373-214.548 75.93a3.186 3.186 0 0 0-1.1-1.2c14.24-23.776 90.872-166.207 107.923-198.003zm-106.622 201.71l.6.1 136.011 95.489-96.692 15.848-41.124-109.631a2.92 2.92 0 0 0 1.201-1.806zm137.817 96.492l27.082 19.057c-34.906 10.732-72.72 22.368-110.735 34l-13.942-37.112zm-134.807-95.89l214.548 40.623-29.69 45.939-49.851 8.125zm-1.906-1.4l-1-.7 214.949-76.13 45.036 53.161-41.827 64.7zm214.949-77.133l100.1-35.407a3.048 3.048 0 0 0 .8.8l-56.37 87.264zm-2.207-162.291c-26.48 0-37.513.1-42.228.3a1.7 1.7 0 0 0-.3-1l67.5-59.078a3.463 3.463 0 0 0 1.806.5 3.38 3.38 0 0 0 1.705-.5l24.574 59.781c-20.863-.108-38.717-.007-53.061-.007zm28.486-65.3l9.127-53.16h.2a2.647 2.647 0 0 0 1.906-.7l38.918 22.568-49.349 32a2.7 2.7 0 0 0-.805-.71zm12.036-54.565a3.4 3.4 0 0 0 .6-1.5l91.577-11.234.7.6-53.562 34.7zm.5-2.508a3.238 3.238 0 0 0-3.21-2.608c-.3 0-.6.1-.9.1l-34.4-68.206c16.449-7.523 32.4-14.744 46.841-21.465l82.249 81.045zm-21.365-122.871l95.288-1.1c0 .1.1.3.1.4-8.425 3.912-33.4 15.447-65.5 30.191zm29.79-244.639a3.087 3.087 0 0 0 .6-1.906v-.4h.7l-.8-.2a3.3 3.3 0 0 0-2.909-2.608v-71.82a3.173 3.173 0 0 0 2.407-1.4l88.869 168.108zM2143.377 497l-.1-.2-.4.2h-.5l-8.927-66.2a3.236 3.236 0 0 0 1.6-2.207l64.5-1.705a2.961 2.961 0 0 0 .2 1.3 3.533 3.533 0 0 0 .5.8l-55.669 67.912h-1.2zm57.574-67.3a3.266 3.266 0 0 0 2.908.2 2.737 2.737 0 0 0 1.2-.9l103.819 67.9h-162.993zm1.3-5.717l-.5-.6-4.514-85.859 101.306-21.565a3.9 3.9 0 0 0 .2 1.5 3.526 3.526 0 0 0 .5.8l-94.987 106.321a2.425 2.425 0 0 0-2-.599zm96.491-108.729l-101.502 21.563-7.723-147.245.5-1.805a2.978 2.978 0 0 0 1.605-.2 3.138 3.138 0 0 0 1.805-2.508l93.482 1.705 14.042 126.382a.9.9 0 0 0-.5.1 3.051 3.051 0 0 0-1.704 2.006zM2285.206 164.3l-.7-6.118a.9.9 0 0 0 .5-.1c.2-.1.4-.3.6-.4l22.969 26.681zm23.371 20.863a2.961 2.961 0 0 0-.5 1.3l-20.362-.4-2.307-20.863zm-21.766 1l-93.382-1.705c0-.1-.1-.2-.1-.4l83.151-26.279 7.824 6.72zm-14.644-33.1l8.526 1.805a2.776 2.776 0 0 0 .1.9l-3.911 1.2zm5.216 4.413l3.511-1.1a3.021 3.021 0 0 0 2.808 1.906l.6 5.115zm3.711-3.711a.758.758 0 0 0-.2.4l-9.93-2.106-51.957-44.535 62.188 46.139c-.101-.099-.101.001-.101.101zm-5.015 3.511l-82.75 26.079a3.331 3.331 0 0 0-1.805-1.705l11.334-43.632 68.006 14.644zm11.635 29.589l20.261.4a4.413 4.413 0 0 0 .2 1 3.041 3.041 0 0 0 2.307 1.805l-8.927 122.069zm26.279 1.2a3.318 3.318 0 0 0 0-2.407c-.1-.1-.1-.2-.2-.3l48.346-36.611 71.817 104.416a1 1 0 0 0-.4.5zm47.744-40.021l-48.346 36.711c-.1-.1-.3-.2-.4-.3l33.6-54.264a3.189 3.189 0 0 0 2.708.1c.1 0 .1-.1.2-.1zm-49.148 36.109a3.189 3.189 0 0 0-2.708-.1c-.2.1-.4.3-.6.4l-23.27-27.082a2.594 2.594 0 0 0 .7-1.1c.1-.1.2-.2.2-.3a3.606 3.606 0 0 0 2.708.2 3.172 3.172 0 0 0 1.705-3.912l53.963-23.27a2.195 2.195 0 0 0 .9 1zm-21.465-32.4a3.177 3.177 0 0 0-5.718.3 4.2 4.2 0 0 0-1.5-.4l-4.915-36.811 65.9 12.337a2.546 2.546 0 0 0 .2 1.2zm-7.924.1a.905.905 0 0 0-.5.1 2.549 2.549 0 0 0-1.3 1.2l-66.9-49.65a1.5 1.5 0 0 0 .3-.7l63.391 11.936zm-13.742-.2l-66.5-14.343 8.425-32.5a2.471 2.471 0 0 0 1.705-.2 4.7 4.7 0 0 0 .9-.6zm-67-14.444l-62.589-13.441a2.776 2.776 0 0 0-.1-.9l69.209-19.96v.1a3.329 3.329 0 0 0 1.805 1.705zm-.2.8l-11.334 43.632a2.833 2.833 0 0 0-1.806.2c-.2.1-.4.3-.6.4l-49.55-56.571a4.135 4.135 0 0 0 .7-1.1zm-14.143 44.434a2.674 2.674 0 0 0-.7 1.4l-83.151-10.432 31.094-47.243a3.189 3.189 0 0 0 2.708.1c.2-.1.4-.3.6-.4zm-84.556-9.027l-15.246-1.906 46.44-45.538zm-16.249-2.106l-54.966-6.921a2.358 2.358 0 0 0-.2-.8l101.707-38.817c.1.2.2.3.3.5zm-55.066-6.018l54.364 6.821-23.771 23.27-31.197-28.883a3.39 3.39 0 0 0 .601-1.2zm30.793 30.893l13.742 12.839a3 3 0 0 0-.6 2.307l-36.009 8.526v-.1c-.1-.2-.3-.4-.4-.6zm-23.17 26.48l15.645 8.335-17.553 15.045-.3-22.067a2.928 2.928 0 0 0 .9-.2 2.373 2.373 0 0 0 1.306-1.106zm-1.2 124.476l-16.055-83.941a.6.6 0 0 0 .4-.1 3.518 3.518 0 0 0 1.705-1.906l12.839 2.608zm-13.842-86.562a3.9 3.9 0 0 0-.2-1.5c-.1-.2-.3-.4-.4-.6l13.14-11.234.2 15.848zm-.9-2.508l-.9-.6 13.34-33.6a1.273 1.273 0 0 0 .6.1l.3 22.568zm.2-32.6l-55.468 20.863-25.878-6.62 16.049-13.842 65.6-3.812zm-82.349 13.942l-39.52-10.131v-.2l55.167-3.21zm.3.8l25.477 6.52-52.265 19.667-.9-2.207zm-27.583 26.48l-4.614 1.705c0-.1-.1-.2-.2-.3l4.012-3.41zm4.507 10.946l37.915 91.476-48.146-96.692c.3-.2.5-.4.8-.6zm40.723 98.7a3.291 3.291 0 0 0-1.5 2.708l-86.161 10.933 34.5-117.054a2.924 2.924 0 0 0 1.6-.1zm-95.489 8.827l-31.7-47.142 52.659-47.744zm-.2.9l-.5 2.207a3.9 3.9 0 0 0-1.5.2l-.1.1-30.793-49.249.9-.8zm-33.3-47.443l-18.255-29.289 19.158 28.486zm30.693 50.352a2.643 2.643 0 0 0-1 1.4l-65-15.948a2.471 2.471 0 0 0-.2-1.705 1.761 1.761 0 0 0-.4-.5l35.708-32.4zm-51.155.5l-22.97-.6 4.313-11.936a2.8 2.8 0 0 0 2.006-.1 4.713 4.713 0 0 0 .9-.6zm-23.571-.6l-24.073-.7 27.182-12.638a2.373 2.373 0 0 0 1.3 1.1zm3.31-17.052l-41.024-27.985 10.131-9.729 30.994 37.614a.1.1 0 0 1-.102.1zm-41.626-28.386l-41.325-28.185.8-17.754 20.362-.9 30.492 37.012zm-42.027-28.586l-21.966-14.945a3.186 3.186 0 0 0 .3-.9l.3-.3 22.167-1zm-21.667-17.051a1.275 1.275 0 0 0-.1-.6 3.535 3.535 0 0 0-.5-.8l17.653-17.252zm-.7 2.708l22.368 15.246-2.909 68.106a.369.369 0 0 0-.3.1l-20.462-82.55h.2a10.683 10.683 0 0 0 1.101-.902zm18.556 83.452h-.2a3.543 3.543 0 0 0-1.4 1.3l-35.608-16.048 15.647-66.3 1.2-1.3zm-22.267-81.346l-47.343 51.857 46.942-53.562a1.617 1.617 0 0 0 .7.4zm-47.243 52.86l31.4 14.143-3.31 13.942L1619 380.55l-3.009-6.319zm-14.845 24.975l-5.115-.4a5.033 5.033 0 0 0-.2-1.2 3.513 3.513 0 0 0-.5-.8l3.109-3.41zm-5.216.2l5.517.4 26.781 55.167-10.331-16.55a4.069 4.069 0 0 0 .5-.9 3.44 3.44 0 0 0-2.106-4.313 3.294 3.294 0 0 0-1.705-.1l-16.65-26.681-3.109-5.115a2.874 2.874 0 0 0 1.101-1.907zm17.453 34.2l-27.282-21.365 5.617-10.331a3.323 3.323 0 0 0 2.407 0zm-27.784-21.866l-2.307-1.805 7.824-8.526h.1zm-15.145-19.455l-5.216-1.4 14.744-28.285zm-.2.7l-.9 2.708a3.6 3.6 0 0 0-2.307 2.207v.4l-5.417-.4 3.31-6.319zm-3.31 6.118a2.973 2.973 0 0 0 .2 1l-8.927 4.112 2.909-5.617zm-9.729 5.617l-16.45 7.523-57.875-11.435-4.413-9.027 81.948 6.821zm-75.328-4.112l-.5-.1-4.012-8.827h.1zm-.9.7l5.517 12.137-36.51-12.237 2.106-5.617zm-31.5-.3l-20.462-6.821 2.909-2.608 19.659 3.912zm-.3.7l-6.62 17.754-27.182-1.4-3.812-8.526 16.851-14.745zm-34.5 16.349l-12.136-.6 8.526-7.422zm.4.8l6.72 14.945-21.966-10.833a2.677 2.677 0 0 0-.1-2.307c-.1-.2-.3-.4-.4-.6l2.307-2.006zm-16.049.9a3.241 3.241 0 0 0-3.41-.6 3.2 3.2 0 0 0-1.906 3.009l-17.453 2.909-9.629-7.523a4.351 4.351 0 0 0 .4-.7c.1-.2 0-.3.1-.5l33.7 1.805zm-23.571 5.416l-32.2 5.416 18.055-12.638a3.6 3.6 0 0 0 1.4 1 3.645 3.645 0 0 0 3.611-.9zm-9.128-11.836a3.817 3.817 0 0 0-1.3-.9 5.082 5.082 0 0 0-1.3-.2l28.887-21.465zm-3.812-1.2l-1.6-3.31 32-19.158zm-.5.3l-15.748 11.635-18.054 9.027-10.933 1.805 43.13-25.878zm-36.31 21.966l-36.31 18.055-2.407.7 28.285-16.951zm-41.626 19.559l-7.924 2.307 5.115-14.343 31.9-5.416zm-3.31-12.839l-2.909.5 33.7-86.662zm-.3.9l-5.216 14.444-1.6.5a1.425 1.425 0 0 0-.6.2h-.2l-.6-1 5.316-13.641zm-8.827 13.24l-6.72-10.632 11.635-1.906zm-.4.9l-.2.6-12.036-11.134 5.015-.8zm-12.939-11.234l-28.486-26.38-20.462-49.349 5.617-2.106 48.647 76.832zm-49.249-76.431l-13.039-31.395 18.556 29.289zm19.86 50.152l11.228 26.997a3.1 3.1 0 0 0-.9 3.611 3.348 3.348 0 0 0 1.1 1.3l-3.21 5.216-49.65-75.428.1-.1zm7.322 37.212l-83.252-8.827a3.3 3.3 0 0 0-.6-1.906l31.7-64.294a3.354 3.354 0 0 0 2.608-.2zm-55.668-69.51l-28.486 55.367 24.073-62.288 5.918-.9a3.535 3.535 0 0 0 1.4 2.006zm1.5-9.729a5.875 5.875 0 0 0-.2 1.3l-5.517.9 2.508-6.419 3.711 3.41a2.185 2.185 0 0 0-.504.824zm-6.52 2.307l-45.438 7.122-4.815-14.845 32.7-18.255 20.261 18.757zm-73.623-78.838l-.4-1.4a1.8 1.8 0 0 0 .7-.5l55.869 53.863zm22.368 70.914l-37.212 20.662a2.835 2.835 0 0 0-1.705-1.3h-.2l14.544-91.176 1.4 1.3zm-39.72 19.258h-.3L1091.9 297.9l22.869-18.556a5.691 5.691 0 0 0 1.3.8h.3zm12.237-93.783a3 3 0 0 0 .4 1L1091.8 297l-2.407-18.656 24.073-.9zm-20.261-19.86l20.763 17.052a2.631 2.631 0 0 0-.5.9 1.708 1.708 0 0 0-.1.7zM1091.2 297.5l-42.328 34.4-12.036-9.729 29.69-42.93 22.167-.8zm-42.93 34.905l-42.027 34.1-.1-.1 30.191-43.632zm-41.425 38.115l30.593 11.134-26.079 2.909-5.818-12.739a3.261 3.261 0 0 0 1.302-1.305zm3.912 14.143l-24.875 2.808 15.948-15.848a2.938 2.938 0 0 0 3.21.5zm-26.179 2.909l-46.44 5.216 62.69-22.468a3.048 3.048 0 0 0 .5.7zm16.049-19.76a3.091 3.091 0 0 0 0 1.906l-69.009 23.27a3.75 3.75 0 0 0-1.3-1.5l28.887-56.17 41.726 31.9zm-41.526-33.7l-1-.8 18.155-32.6zm-.4.8l-28.987 56.27-.1-.1a2.977 2.977 0 0 0-1.6-.1l-.7-2.407 30.392-54.565zm-31.8 52.759l-31.5-101.005 61.586 47.042zm-8.024 5.918l-94.486-4.012a3.628 3.628 0 0 0-1.805-2.808l46.44-116.953a3.27 3.27 0 0 0 1.705 0zm-93.884-14.744l32.7-102.71 9.729-7.222a1.461 1.461 0 0 0 .9.6zM866.819 265.3l-5.216-1.5.7-2.207L866.92 265c0 .1-.101.2-.101.3zm-.2.8v.2H860.9l.5-1.705zm-5.919-2.5l-58.577-16.55 26.982-9.428 32.3 23.471zm-49.55-40.121l60.182-1.6c0 .1.1.2.1.3l-41.927 14.544zm17.25 13.637l-27.483 9.629-62.088-17.553-.6-3.711 71.516-1.906zM742.945 263.8a5.517 5.517 0 0 0-.9.7L726.4 253.265l-1.705-24.574a1.86 1.86 0 0 0 .7-.2zm-17.252-11.134l-20.361-14.745 16.249-10.432a3.28 3.28 0 0 0 1.5 1.1 2.776 2.776 0 0 0 .9.1zm-4.815-28.386v.2l-39.82-5.918a3.417 3.417 0 0 0-.9-2.407l13.742-15.148 27.383 22.669a1.541 1.541 0 0 0-.405.601zm-54.665-47.343L724.59 164.6a7.48 7.48 0 0 0 .7 1.2L694.1 200zm58.075-13.24l-58.978 12.538-55.167-45.638c.1-.2.2-.3.3-.5l113.944 32.8a1.957 1.957 0 0 0-.098.797zm-59.981 12.738l-16.45 3.511-38.215-48.646zm-17.152 3.611L557.886 199a3.4 3.4 0 0 0-.9-1.4l48.647-65.9a4.363 4.363 0 0 0 .7.4 3.706 3.706 0 0 0 2.909-.4zM556.482 197.2a4.355 4.355 0 0 0-.7-.4 3.093 3.093 0 0 0-1.906 0l-16.249-46.24 66.6-20.362a8.379 8.379 0 0 0 .8 1.2zm-19.76-47.243l-70.814 21.565 55.869-56.671a8.812 8.812 0 0 0 1 .6 3.093 3.093 0 0 0 1.906 0zm-83.653 24.173a3.28 3.28 0 0 0-1.5-1.1c-.2-.1-.3 0-.5-.1l2.006-40.723 67.7-18.757a1.616 1.616 0 0 0 .4.7zm-28.386 46.641l20.462 128.99a3.6 3.6 0 0 0-2.106 1.705l-33.1-11.735zm18.055 131.5a3.385 3.385 0 0 0 2.207 4.012 3.213 3.213 0 0 0 2.708-.3l-56.972 138.31 19.158-153.765zm5.015 6.018l-23.571 133.4-32.5 6.72a3.492 3.492 0 0 0-1.1-1.3zm-55.668 141.722a1.273 1.273 0 0 0-.1-.6l32-6.62-5.818 32.6-26.58-23.571a4.087 4.087 0 0 0 .498-1.809zm26.781 27.282l112.44 99.7 1.6 5.116-81.546 45.939-39.62-110.434zm64.294 242.333a3.135 3.135 0 0 0-1.1.9l-92.981-56.37 61.686-34.705zm-1.6 1.805a4.313 4.313 0 0 0-.2 1.2v.1l-59.48 101.306a4.2 4.2 0 0 0-1.5-.4h-.2l-33.5-158.078 1.4-.8zm-60.488 108.628c.2 0 .3-.1.5-.1l64.6 119.361-67.8.1zm65.7 120.163l14.644 26.982-83.252-16.049.2-10.833zm1.1 0l124.978-.2a3.154 3.154 0 0 0 1.3 1.906l-26.881 41.927-84.556-16.249zm98.8 44.535l-40.422 63.191-42.93-79.239zm27.383 190.576l-.3.3L498 1184.981l48.045-75.027zm-.9 1.1a2.944 2.944 0 0 0-.4 1.6 3.025 3.025 0 0 0 1.4 2.608l-47.744 101.306-124.175 11.743-8.927-67.6 64.294-100.3zm-180.144 48.146l-17.553-132.8a2.563 2.563 0 0 0 1.5-1.2l79.54 34.805zm8.125 69.209l-52.659 5.015a3.058 3.058 0 0 0-.8-1.6l44.635-69.711zm-52.659 6.018l52.759-5.015 4.213 31.6-57.072-26.079a4.346 4.346 0 0 0 .097-.503zM676.545 1488.8l25.677-132.8 50.152 68.808-74.826 64.7a3.6 3.6 0 0 0-1.003-.708zm1.5 1.6l74.926-64.8 37.614 51.656-112.235 13.95c-.1-.301-.1-.606-.301-.806zm207.026-174.929a3.587 3.587 0 0 0 2.207-1.1l1.806 1.1 116.653 135.108-145.537 18.059zm6.62 1.5L1017.876 1391l-9.629 58.376h-.2a3.381 3.381 0 0 0-1.705.5zm127.184 74.626l43.732 25.677-52.158 33a2.393 2.393 0 0 0-1.1-.6zm-7.623 60.081l75.127-20.562 41.224 24.173-18.756 30.994zm76.431-20.863l65.5-17.854-25.176 41.525zm67-18.255l75.328-20.462 25.176 62.689-67 35.006-59.179-34.7zm76.331-20.662l61.786-16.851 50.854 26.58-2.708 8.425-84.856 44.234zm66.2 158.579c-.1-.1-.3-.2-.4-.3l45.036-139.421 9.629-5.015 57.273 29.991zm55.267-145.339l173.926-90.774-117.054 120.464zm-1-.5l-6.52-3.41 14.243-44.133 168.008-45.738 2.407-.1-1 1zm37.112-138.719l61.486-190.476a3.2 3.2 0 0 0 1.4.3 2.207 2.207 0 0 0 .8-.1c8.526 23.972 70.112 197 79.139 229.795l.2 1.7a2.563 2.563 0 0 0-1.5 1.2zM1503.945 1093l50.753 18.757 18.456 52.759-40.322 142.43c-.1-.5-.3-1-.4-1.6zm69.711 73.121l29.288 83.653-67.8 58.176a2.585 2.585 0 0 0-1.3-.8zm-39.118 146.744l141.026 147.746a3.232 3.232 0 0 0-.7 2.006.751.751 0 0 0 .1.5l-70.714 16.65-69.711-166.9zm69.61-62.79l95.689-82.148a3.531 3.531 0 0 0 1.906 1l-23.571 290.478a1.486 1.486 0 0 0-.7.1zm98.6-81.145c.3-.1.7-.2 1-.3l123.975 179.242-147.546 112.139a3.137 3.137 0 0 0-1-.5zm125.579 179.844l55.367 80.042-202.311 33.2a3.72 3.72 0 0 0-.5-1.1zm.8-.6l47.243-35.909a3.347 3.347 0 0 0 2.507 1.2c.3 0 .6-.1.9-.1L1920.8 1422.7l-36.009 5.918zm91.978 75.528l13.942 37.212c-7.723 2.408-15.447 4.714-23.17 7.122l-26.58-38.416zm5.116 40.924c3.109-.9 6.219-1.906 9.328-2.809l33 87.765-55.869-80.744c4.414-1.404 8.928-2.708 13.541-4.212zm122.871-37.714c.9-.3 1.906-.6 2.809-.9l-1.3 2.006zm-1.1-.7l-26.881-18.957 47.945-7.824-16.356 25.269c-1.5.507-3.106 1.008-4.711 1.51zm22.368-26.981l139.521-22.869c-20.061 6.219-80.744 24.875-155.671 47.945zm30.793-47.644l41.425-64.094 71.817 84.756a4.277 4.277 0 0 0-.5.7zm42.027-65l56.571-87.665a2.971 2.971 0 0 0 1 .2l15.446 172.12a3.6 3.6 0 0 0-1.1.4zm72.72-214.649c54.966.1 105.719.3 119.06.3.1.2.1.4.2.6l-132.1 120.765a2.851 2.851 0 0 0-1.705-.9zm-.8-1h-20.362c-16.149 0-31.094 0-44.736-.1l-24.875-60.483a3.732 3.732 0 0 0 .7-2.006 3.6 3.6 0 0 0-.2-1.1l49.851-32.3 47.945 27.784zm-38.817-96.692l52.358-33.9a2.2 2.2 0 0 0-.1.8 3.233 3.233 0 0 0 1.806 2.909l-6.921 57.574zm53.261-36.109l.8-.1-.5.3zm-.9-.9l-82.55-81.346c31.7-14.544 56.571-26.079 65.2-30.091a3.058 3.058 0 0 0 2.207 1.2l-.1 1 .7-.4 16.851 109.431zM2214.994 827l18.456-11.033-1.805 119.461zm19.459-11.635l110.534-66.1-111.638 188.97-.7-.9zm.1-1.2l2.006-136.613a3.481 3.481 0 0 0 2.608-1.3l106.322 71.516zm1.806-144.136a3.2 3.2 0 0 0-1.4.3l-89.17-168.81a1.7 1.7 0 0 0 .1-.7 3.052 3.052 0 0 0-1.1-2.407l.3-.3h165.3l1.2.8a3.468 3.468 0 0 0-.7 2.006 3.173 3.173 0 0 0 1.7 2.809l-74.826 166.6a3.2 3.2 0 0 0-1.405-.303zM2312.188 498zm-1.5-1l-105.118-68.808a3.316 3.316 0 0 0 0-2.407 2.182 2.182 0 0 0-.5-.8l94.987-106.321a3.708 3.708 0 0 0 1.1.5l12.736 177.736h-3.209zm-8.827-177.637a4.271 4.271 0 0 0 1.1-.2 3.055 3.055 0 0 0 1.705-3.811l128.689-58.276a3.76 3.76 0 0 0 1.3 1.2L2315.3 497.1h-.8zm132.7-66.7l-71.821-104.415 60.282-45.738a2.673 2.673 0 0 0 2.006.9l10.231 148.95a1.273 1.273 0 0 0-.6.1c-.001.103-.001.203-.101.203zm-25.28-216.354a2.554 2.554 0 0 0 1.2-1.1l126.984 70.413a1.487 1.487 0 0 0-.1.7l-109.026-6.122a4.265 4.265 0 0 0-.2-1.1 3.23 3.23 0 0 0-3.41-1.805l-15.749-60.986zm-.7.1l15.747 60.984h-.2a3.061 3.061 0 0 0-1.705 3.611l-71.523 25.077a2.455 2.455 0 0 0-.9-1.1l56.772-88.768a2.253 2.253 0 0 0 1.807.197zm-142.03-32.1L2404.968 33.2a3.9 3.9 0 0 0 .2 1.5 3.8 3.8 0 0 0 .9 1.2l-56.768 88.776a2.967 2.967 0 0 0-2.608-.1c-.1 0-.1.1-.2.1L2265.647 5.617a2.8 2.8 0 0 0 .903-1.304zm-1.705 1.805c.1 0 .1-.1.2-.1l80.944 119.06a4.213 4.213 0 0 0-.9 1.4l-66.1-12.438-14.547-107.818a.6.6 0 0 0 .401-.1zm-1.2.3l14.444 107.525-63.091-11.836a3.194 3.194 0 0 0-.2-1.4 3.049 3.049 0 0 0-1.2-1.3l48.847-93.081c.392-.003.794.097 1.195.097zm-160.485 13.24l157.471-15.743a.751.751 0 0 0 .1.5 3.051 3.051 0 0 0 1.2 1.3L2213.088 98.8a3.319 3.319 0 0 0-2.407 0 2.56 2.56 0 0 0-1 .7l-106.926-78.637a1.7 1.7 0 0 0 .401-1.204zm-.9 2.106l106.915 78.54a2.59 2.59 0 0 0-.3 2.106l-69.209 19.96v-.1a3.013 3.013 0 0 0-3.611-1.705l-34.7-98.1a2.182 2.182 0 0 0 .897-.696zm-3.21.8a2.486 2.486 0 0 0 1.705 0l34.705 98.1a3.005 3.005 0 0 0-1.6 3.611l-101.707 38.817a3.185 3.185 0 0 0-1.1-1.2zm-68.507 144.838a4.71 4.71 0 0 0 .9-.6l31.094 28.887-23.27 22.769a3.418 3.418 0 0 0-2.207-.7l-7.222-50.252c.296-.097.497.004.697-.097zm-1.2.2h.2l7.222 50.252a1.271 1.271 0 0 0-.6.1 3.216 3.216 0 0 0-1.906 2.708l-9.127.5zm-2.106-.8a2.975 2.975 0 0 0 1.5.7l-4.213 53.762-64.7 3.711zm-.6-.6l-68.206 58.878-56.17 3.21a.9.9 0 0 0-.1-.5zm-124.476 63.793l39.018 10.03-27.196 23.379-13.24-31.9a2.572 2.572 0 0 0 1.405-1.505zm-2.106 1.805l13.34 32.1-4.212 3.611a3.233 3.233 0 0 0-2.508-.7l-6.62-35.006zm-.4.1l6.72 35.006a.9.9 0 0 0-.5.1 3.04 3.04 0 0 0-1.805 3.21l-14.143 3.109 9.111-41.321a1.272 1.272 0 0 0 .602-.1zm-2.808-1.1a4.138 4.138 0 0 0 1.3 1l-9.228 41.726-84.355 18.355a.369.369 0 0 0-.1-.3c0-.1-.1-.1-.1-.2zm-92.078 61.686l84.054-18.255-3.21 14.745-53.462 48.446-28.386-42.228a3.4 3.4 0 0 0 .988-2.707zm-3.21 3.41a2.962 2.962 0 0 0 1.3-.2l.1-.1 27.182 43.431-35.808 32.5a6.133 6.133 0 0 0-1.4-.7zm-1.806-.7a3.518 3.518 0 0 0 1.4.6l-8.626 74.926a2.964 2.964 0 0 0-1.3.2 1.382 1.382 0 0 0-.4.3l-31.094-37.714zm-.9-1.1c.1.2.3.4.4.6l-40.021 38.416-30.191-36.51 69.61-3.21a1.079 1.079 0 0 0 .184.7zm-87.364-20.863l87.164 19.258v.2l-70.112 3.31-17.754-21.465a8.307 8.307 0 0 0 .684-1.307zm-2.808 2.106a4.267 4.267 0 0 0 1.1-.2 1.385 1.385 0 0 0 .4-.3l17.353 21.064-19.86.9zm-1.906-.6a2.113 2.113 0 0 0 1.3.5l-.9 21.665-21.465 1zm-.7-.6a.1.1 0 0 0 .1.1l-.1.1-22.267 21.766a3.108 3.108 0 0 0-3.31-.6 3.194 3.194 0 0 0-1.705 4.012l-73.723 36.711zm-27.082 25.878c.1.2.2.3.3.5l-47.143 53.863-30.492-13.742a3.76 3.76 0 0 0 0-2.106zm-77.535 41.225l30.292 13.641-16.249 18.456-15.146-31.094a2.667 2.667 0 0 0 1.084-1.01zm-1.6 1.4l15.246 31.295-3.109 3.511-.2.2a2.9 2.9 0 0 0-2.407-.5l-9.529-34.5zm-1.6.1a2.445 2.445 0 0 0 1.2 0l9.529 34.5h-.2a3.154 3.154 0 0 0-1.705 1.705l-18.757-5.216zm-114.145 1.805l111.637-4.413a2.363 2.363 0 0 0 .2.8 2.858 2.858 0 0 0 1.1 1.3l-15.447 29.69-97.495-27.082zm-.2 1l97.294 27.082-3.31 6.419-82.85-6.821-12.337-25.176a3.974 3.974 0 0 0 1.174-1.503zm-3.711 1.705a2.783 2.783 0 0 0 1.806 0l11.234 24.675-21.565-1.805zm-1.3-.7a2.184 2.184 0 0 0 .8.5l-8.626 22.969-17.353-1.4zm-8.124 24.374l-1.806 4.915-19.057-3.811 3.009-2.608zm-18.757-1.5l-2.909 2.608-24.374-4.815zm-3.711 3.31l-2.909 2.508-22.402-7.529zm-28.085-5.216l24.574 8.225-16.45 14.444-9.529-21.164a3.4 3.4 0 0 0 1.371-1.511zm-5.517.9a3.817 3.817 0 0 0 1.3.9 3.341 3.341 0 0 0 2.207-.1l9.629 21.365-9.027 7.924-34.5-1.805a2.884 2.884 0 0 0-.7-1.805zm-73.121-57.875l72.72 53.762a4.345 4.345 0 0 0-.4.7 3.58 3.58 0 0 0 .1 2.508l-36.41 21.866-37.012-78.136a3.6 3.6 0 0 0 .968-.703zm-1.4.9l37.012 78.136-44.936 26.982-33.5 5.617 39.519-110.634a3.1 3.1 0 0 0 1.867-.101zm-4.213-1.6a3.773 3.773 0 0 0 1.4 1.4l-43.465 111.837-12.437 2.106-48.747-77.033zm-121.868 5.316a2.779 2.779 0 0 0 .1-.9l121.467-5.416c0 .1.1.2.1.3l-103.35 38.309-19.459-30.793a4.191 4.191 0 0 0 1.104-1.505zm-2.407 2.106l13.641 32.8-19.86 7.422a3.4 3.4 0 0 0-2.006-1.705h-.3l7.222-38.316a2.753 2.753 0 0 0 1.265-.206zm-1.7.1l-7.222 38.316a3.536 3.536 0 0 0-2.608.8l-.2-.2-3.711-3.611L1210 317.361zm-1.906-1.4a4.278 4.278 0 0 0 1.2 1.1l-13.541 35.106-19.258-18.556zm-.4-.6l-31.8 17.653-56.17-54.063.3-.6 87.464 34.7a4.45 4.45 0 0 0 .162 2.3zm-119.26-62.589l115.349 58.076-83.252-33.1a3.429 3.429 0 0 0-2.207-4.213 3.644 3.644 0 0 0-3.611.9l-26.179-21.565-.1-.1zm-.7.8l25.076 23.17-23.471.9-3.009-23.371a4.593 4.593 0 0 0 1.357-.707zm-3.21.6a2.47 2.47 0 0 0 1.2.1l3.009 23.27-21.565.8 16.951-24.474c.058.097.158.298.358.298zm-2.006-1.906a3.813 3.813 0 0 0 .9 1.3l-17.252 24.875-76.331 2.909c0-.1 0-.1-.1-.2zm-92.928 30.586a2.493 2.493 0 0 0 .1-.8l75.829-2.809-29.389 42.428-46.942-38.015a3 3 0 0 0 .402-.804zm-.9 1.4l47.042 38.015-30.292 43.732c-.2-.1-.3-.2-.5-.3a2.58 2.58 0 0 0-1.5-.1l-16.149-80.543a4.694 4.694 0 0 0 1.397-.799zm-3.41.8a2.58 2.58 0 0 0 1.5.1l16.249 80.543a4.364 4.364 0 0 0-1.5.8l-41.827-32 25.477-49.65c-.002.114-.002.214.099.214zm-.9-.5L957.399 332.9 895 285.262l-4.915-15.647 92.881 12.137a3.515 3.515 0 0 0 1.409 2.808zm-106.928-61.28l105.82 57.273c0 .1-.1.1-.1.2v.3L889.89 268.81l-13.842-44.434a3.016 3.016 0 0 0 1.404-1.102zm-2.207 1.4l13.741 44.033-15.647-2.006a3.34 3.34 0 0 0-2.307-3.31c-.2-.1-.3 0-.5-.1l4.012-38.516c.199.004.4-.096.701-.096zm-1.1 0l-4.012 38.516a3.552 3.552 0 0 0-2.608 1l-4.815-3.511 11.435-36.009zm-.9-.3L861.8 260.186l-31.6-22.969 41.325-14.444a3.76 3.76 0 0 0 1.714 1.605zm-1.906-3.912a.752.752 0 0 1-.1.5l-61.185 1.6L730.608 165zM730.106 165.8l78.537 56.972-70.613 1.906-9.53-57.878a6.263 6.263 0 0 0 1.606-1zm-2.407 1h.2l9.529 57.775-9.93.3a3.355 3.355 0 0 0-2.307-2.708 1.272 1.272 0 0 0-.6-.1zm-1.1-.1a1.488 1.488 0 0 0 .7.1l-3.21 55.167a3.653 3.653 0 0 0-2.307.9L694.5 200.3l31.094-34.2a8.834 8.834 0 0 0 1.006.6zM639.031 15.847l86.562 144.938a3.6 3.6 0 0 0-1 1.4l-113.944-32.8a3.448 3.448 0 0 0-2.106-3.812l28.582-109.525a4.007 4.007 0 0 0 1.906-.201zm-3.611-.6a2.391 2.391 0 0 0 1.1.6l-28.683 109.632a3.334 3.334 0 0 0-3.711 2.207v.1l-76.933-15.246a3.231 3.231 0 0 0-.6-2.307zM461.9 11.133c.1-.2 0-.4.1-.6l172.321 2.608a4.727 4.727 0 0 0 .6 1.5l-108.731 95.09a2.407 2.407 0 0 0-1.2-.7 3.354 3.354 0 0 0-2.608.2l-61.59-96.493a5.733 5.733 0 0 0 1.108-1.605zm-3.009 2.307a3.269 3.269 0 0 0 1.3-.4l61.586 96.492a4.441 4.441 0 0 0-1.2 1.5 2.926 2.926 0 0 0-.1 1.6l-67.4 18.757zm-1.3-.2c.2.1.3 0 .5.1l-5.824 118.26-70.613 19.559a3.016 3.016 0 0 0-1.1-1.4l76.828-136.62c.1 0 .1.101.201.101zM307.93 56.972a2.976 2.976 0 0 0 .1-1.6l147.547-44.038a2.774 2.774 0 0 0 1.1 1.3l-76.929 136.617c-.1 0-.1-.1-.2-.1a3.413 3.413 0 0 0-2.808.4l-69.712-91.175a3.4 3.4 0 0 0 .902-1.404zm-1.5 1.805l69.711 91.176a3.817 3.817 0 0 0-.9 1.3L295.4 130.591a3.408 3.408 0 0 0-2.207-3.812h-.3l11.435-67.5a3.023 3.023 0 0 0 2.098-.502zm-4.313-.6a3.6 3.6 0 0 0 1.4 1h.3l-11.435 67.5a3.383 3.383 0 0 0-3.511 2.207 2.47 2.47 0 0 0-.1 1.2l-117.756 16.65c-.1-.2-.1-.5-.2-.7zm-131.1 90.574a5.035 5.035 0 0 0 .2-1.2L288.873 130.9a3.709 3.709 0 0 0 .5 1.1l-110.934 99.2a3.469 3.469 0 0 0-1.2-.7 4.5 4.5 0 0 0-1.1-.1l-7.824-79.34a3.526 3.526 0 0 0 2.702-2.311zm-5.617 1.5a2.407 2.407 0 0 0 1.2.7 4.5 4.5 0 0 0 1.1.1l7.824 79.34a3.27 3.27 0 0 0-2.608 2.207 3.412 3.412 0 0 0-.1 1l-114.64 10.439a6.136 6.136 0 0 0-.5-1.2zM55.969 241.429a3.354 3.354 0 0 0-2.608.2L5.416 161.287a3.446 3.446 0 0 0 1.3-1.6 2.777 2.777 0 0 0 .1-.9L164.5 148.348a4.341 4.341 0 0 0 .5 1.2L57.173 242.131a3.468 3.468 0 0 0-1.204-.702zm103.011 92.179a3.3 3.3 0 0 0-2.508.8l-98.9-87.765a3.517 3.517 0 0 0 .5-.8 3.412 3.412 0 0 0 .1-1l114.646-10.331a3.27 3.27 0 0 0 2.207 2.608h.2zm132.5-35.307a2.926 2.926 0 0 0-.1 1.6l-129.491 35.813a3.916 3.916 0 0 0-2.006-2.006h-.2l16.249-96.592a3.26 3.26 0 0 0 3.009-1.4l112.74 62.384a.216.216 0 0 0-.2.2zm.5-.9L179.242 235.01c0-.1.1-.1.1-.2a3.226 3.226 0 0 0-.5-3.009l111.036-99.1a3.467 3.467 0 0 0 1.2.7 1.707 1.707 0 0 0 .7.1l2.508 162.591a2.92 2.92 0 0 0-2.304 1.308zm3.811-1.3a1.707 1.707 0 0 0-.7-.1L292.584 133.4a3.046 3.046 0 0 0 2.106-1.2l69.61 44.033-68.306 119.861c0 .101-.1 0-.2 0zm1.5 1.1c-.2-.2-.3-.4-.5-.5L365.1 176.834l55.869 35.307a.521.521 0 0 0-.2.4 3.354 3.354 0 0 0 .2 2.608zm.7 2.909a2.208 2.208 0 0 0 .1-.8l.4 1zm.7-1.906l-.7.3c-.1-.2-.1-.5-.2-.7l123.573-82.048a3.279 3.279 0 0 0 1.5 1.1 5.033 5.033 0 0 0 1.2.2v.2l-15.229 122.169-108.929-38.717zm1.6 3.611l108.428 38.416L389.276 496.6a.758.758 0 0 1-.4-.1zm88.367 201.71a3.039 3.039 0 0 0 2.207-1l26.982 23.972-6.921 39.219zm22.669 66.1l39.134 108.925-62.088 35.006a3.606 3.606 0 0 0 .2-1.1 3.36 3.36 0 0 0-1.906-3.009zm-56.17 429.5l30.492-283.256.1.1 33.5 157.877a3.272 3.272 0 0 0-2.106 3.009 3.2 3.2 0 0 0 3.009 3.21l-2.608 119.26-60.383.1zm7.021 1.4l55.167-.1-.2 10.733zm55.969 11.736L502 1028.41l43.532 80.443-48.432 75.626-79.641-34.906a2.929 2.929 0 0 0 .2-.9 3.136 3.136 0 0 0-2.407-3.109zm-31.7 344.04l28.085-203.615 17.553 133.2-45.216 70.614c-.1 0-.201-.1-.401-.2zm1.4 4.915l57.674 26.38 21.264 161.087-79.615-186.567a5.515 5.515 0 0 0 .702-.903zm82.75 189.673a3.325 3.325 0 0 0-1-1.4l58.503-124.182 143.835 65.7a1.954 1.954 0 0 0-.1.8 1.708 1.708 0 0 0 .1.7zm320.669-72.72l25.477 34.906-137.716-21.064zm-110.734 15.146l137.014 20.963 25.778 35.407a5.509 5.509 0 0 0-.7.9zm167.807 56.771a2.593 2.593 0 0 0-1.4-1.1l4.815-29.489 37.112 5.617zm41.826-25.778l-38.215-5.818 7.924-48.747 145.139-17.954a2.968 2.968 0 0 0-.2 1 2.211 2.211 0 0 0 .1.8zm115.248-70.011a3.424 3.424 0 0 0 2.808 1.6 3.464 3.464 0 0 0 1.805-.5l57.373 94.084a3.378 3.378 0 0 0-1.1 1.7L891.771 1524.5zm66.7 95.99c-.1-.2-.3-.4-.4-.6l37.614-62.088 49.349 17.553zm87.765-45.738l-50.051-17.754 18.656-30.894 58.677 34.4zm1.2.4l26.982-14.042 102.309 60.082zm28.085-14.544l66.4-34.6 37.914 94.385a2.193 2.193 0 0 0-1 .9zm108.929 61.586a4.9 4.9 0 0 0-.3-.7l111.868-115.151 118.057 61.787zm112.239-116.552l118.96-122.47 1.1-.6a3.4 3.4 0 0 0 2.407 1.1c.3 0 .6-.1.9-.1l69.61 166.8-74.124 17.453zm120.163 62.89l73.121-17.252 28.787 69.009a3.47 3.47 0 0 0-1.1 1zm106.622 53.562a3.4 3.4 0 0 0-.9-1.4l41.325-84.656c.2 0 .4.1.6.1a3.173 3.173 0 0 0 2.808-1.7l121.066 37.413c-83.522 25.667-150.424 46.129-164.867 50.241zm166.7-50.753l-122.47-37.915v-.4l202.913-33.2 26.681 38.617a53514.274 53514.274 0 0 1-107.089 32.896zm1.705.6c29.891-9.127 64.9-19.86 106.02-32.5l56.27 81.346a4.447 4.447 0 0 0-.8 1.1zm167 49.149a.1.1 0 0 0-.1-.1l78.437-121.367 45.538 31.9zm124.676-90.172l-45.838-32.2 1.906-3.009c80.945-24.875 145.941-44.936 160.686-49.449v.1zm.9.6l116.653-84.455a3.067 3.067 0 0 0 2.006.7c.3 0 .6-.1.9-.1l9.629 172.22a3.213 3.213 0 0 0-1.905 1zm120.965-84.555l115.951 85.659-104.917 88.267a3.258 3.258 0 0 0-1.805-1l-9.729-172.722c.243-.003.344-.104.544-.204zm-1-5.316a2.926 2.926 0 0 0-.9-.2l-15.447-172.221a3.165 3.165 0 0 0 2.207-3.109 2.835 2.835 0 0 0-.4-1.5l132.2-120.665a2.656 2.656 0 0 0 .6.5zm116.853-300.207c-13.44 0-64.294-.2-118.859-.3l8.125-67.7 112.54 65.3a3.31 3.31 0 0 0-1.765 2.7zm-110.634-69.109l7.021-57.875c.2 0 .3.1.5.1a3.237 3.237 0 0 0 3.209-2.608l101.908 125.78zm113.743 65.1l-103.07-127.187a7.528 7.528 0 0 0-.7-1.2l111.736-189.176zm8.225-320.167l-106.522-71.717a4.2 4.2 0 0 0 .4-1.6 3.788 3.788 0 0 0-.8-2.307l156.172-188.57zm49.65-266.1l-157.234 189.866 74.927-166.8c.2 0 .4.1.6.1a3.232 3.232 0 0 0 3.21-3.21 3 3 0 0 0-1.3-2.508l.5-1.2h-.2l119.26-238.521a2.976 2.976 0 0 0 1.605-.2c.1 0 .2-.1.3-.2zm1.3-1.6l41.525-222.573c.1-.1.1-.3.2-.4l120.564 22.568a3.945 3.945 0 0 0 .9 3.31zm163.093-202.01l-.6.9-120.665-22.669v-.5l.1-.7-.3-.1v-.1c0-.1-.1-.1-.1-.2l98.3-65.8a3.372 3.372 0 0 0 2.809 1.1l22.267 86.863a4.1 4.1 0 0 0-1.766 1.193zm5.015-.7a4.116 4.116 0 0 0-2.608-.7l-22.267-86.863h.2a3.079 3.079 0 0 0 1.806-2.508l105.719.6a2.934 2.934 0 0 0 .2.9 1.8 1.8 0 0 0 .5.7zm87.063-92.68a3.062 3.062 0 0 0-2.307 0 2.846 2.846 0 0 0-1.1.8l-105.82-76.431a5.639 5.639 0 0 0 .4-1.2l145.139-2.608a2.365 2.365 0 0 0 .2.8 2.96 2.96 0 0 0 1.3 1.4z" class="cls-2" data-name="Path 552" transform="translate(-386.067)"/>
        </g>
    </g>
</svg>
