<svg xmlns="http://www.w3.org/2000/svg" viewBox="13992.169 3401.3 33.671 33.7">
  <defs>
    <style>
      .cls-1 {
        fill: #fff;
      }
    </style>
  </defs>
  <g id="Group_7" data-name="Group 7" transform="translate(13992.169 3401.3)">
    <path id="Path_7" data-name="Path 7" class="cls-1" d="M717.684,20.961a.6.6,0,1,0-.927.753,15.66,15.66,0,0,1-22.6,21.53.6.6,0,0,0-.782.9,16.853,16.853,0,0,0,24.311-23.181Z" transform="translate(-687.751 -14.731)"/>
    <path id="Path_8" data-name="Path 8" class="cls-1" d="M675.717,16.835A15.659,15.659,0,0,1,701.8,5.158a.6.6,0,1,0,.782-.9A17.01,17.01,0,0,0,691.335,0a16.83,16.83,0,0,0-13.068,27.441.572.572,0,0,0,.84.087.6.6,0,0,0,.087-.84A15.832,15.832,0,0,1,675.717,16.835Z" transform="translate(-674.5 0)"/>
    <path id="Path_558" data-name="Path 558" class="cls-1" d="M20.2,5l-.1-.1V4.7c.3-1.3.3-3.3-.4-4.2a1.107,1.107,0,0,0-1-.5h0A8.536,8.536,0,0,0,15,1.5l-.3.2h-.2a13.836,13.836,0,0,0-7,0H7.3V1.6A8.069,8.069,0,0,0,3.3,0a1.382,1.382,0,0,0-.9.5c-.6.9-.6,2.8-.3,4.2v.2L2,5A8.645,8.645,0,0,0,.9,12.8a8.2,8.2,0,0,0,5.9,5l.5.1-.3.4a3.773,3.773,0,0,0-.5,1.6v.2l-.2.1a2.529,2.529,0,0,1-1.9.1A2.666,2.666,0,0,1,2.9,19,4.365,4.365,0,0,0,.1,16.9L0,17l.1,1.3H.2a2.965,2.965,0,0,1,1.7,1.5,4.233,4.233,0,0,0,2.2,1.8,3.4,3.4,0,0,0,2,0l.5-.1v3.3l.3.1a6.373,6.373,0,0,1,.7.2h.2V20.5a3.488,3.488,0,0,1,.8-2.3,7.033,7.033,0,0,0,.7-1l.1-.2-1-.1c-4.1-.6-5.7-2.8-6.4-4.5A7.364,7.364,0,0,1,3.1,5.5a.863.863,0,0,0,.2-.8,6.888,6.888,0,0,1,0-3.2l.1-.3h.3A6.5,6.5,0,0,1,6.5,2.5l.4.2a1.087,1.087,0,0,0,.5.1h.1c.1,0,.2-.1.4-.1a11.913,11.913,0,0,1,3.2-.4,13.318,13.318,0,0,1,3.4.5h.1a.926.926,0,0,0,.7-.1l.4-.2a10.168,10.168,0,0,1,2.8-1.3h.3l.1.3a5.867,5.867,0,0,1-.1,3.2.863.863,0,0,0,.2.8,7.1,7.1,0,0,1,1.1,6.9c-.7,1.7-2.3,3.9-6.4,4.5l-1,.1.2.3c.5.7.6.9.7,1a3.488,3.488,0,0,1,.8,2.3v4.8h.2c.3-.1.6-.2,1-.3h.1V20.7a5.214,5.214,0,0,0-.5-2.3l-.2-.5.5-.1a8.268,8.268,0,0,0,5.9-4.9A8.5,8.5,0,0,0,20.2,5Z" transform="translate(5.831 7.7)"/>
  </g>
</svg>
