<svg xmlns="http://www.w3.org/2000/svg" viewBox="9530.459 3904.3 33.643 33.7">
    <defs>
        <style>
            .cls-1{fill:#fff}
        </style>
    </defs>
    <g id="Group_12" data-name="Group 12" transform="translate(9530.459 3904.3)">
        <path id="Path_19" d="M380.384 20.961a.6.6 0 0 0-.927.753 15.66 15.66 0 0 1-22.6 21.53.6.6 0 1 0-.782.9A16.824 16.824 0 0 0 384.122 31.6a16.648 16.648 0 0 0-3.738-10.639z" class="cls-1" data-name="Path 19" transform="translate(-350.48 -14.731)"/>
        <path id="Path_20" d="M338.488 16.835a15.659 15.659 0 0 1 26.079-11.677.6.6 0 0 0 .782-.9A16.936 16.936 0 0 0 354.135 0a16.829 16.829 0 0 0-13.068 27.441.572.572 0 0 0 .84.087.6.6 0 0 0 .087-.84 15.69 15.69 0 0 1-3.506-9.853z" class="cls-1" data-name="Path 20" transform="translate(-337.3)"/>
        <path id="Path_21" d="M393.258 57.392H397a.612.612 0 0 0 .608-.609V50.35a6.054 6.054 0 0 0-1.391-4.231 4.67 4.67 0 0 0-3.506-1.42 4.326 4.326 0 0 0-2.753.869.612.612 0 0 0-.609-.609h-3.738a.59.59 0 0 0-.435.174.639.639 0 0 0-.174.435c.058 1.014 0 11.069 0 11.185a.594.594 0 0 0 .609.609h3.738a.612.612 0 0 0 .609-.609v-6.23a2.022 2.022 0 0 1 .087-.7 1.475 1.475 0 0 1 1.362-.985c.348 0 1.275 0 1.275 1.941v6a.57.57 0 0 0 .576.613zm-1.912-9.736a2.6 2.6 0 0 0-2.463 1.739 2.982 2.982 0 0 0-.174 1.13v5.65h-2.521c0-1.941.029-7.94 0-10h2.521v.985a.617.617 0 0 0 .435.58.567.567 0 0 0 .666-.261 3.063 3.063 0 0 1 2.84-1.565c2.347 0 3.68 1.623 3.68 4.433v5.824h-2.521v-5.39a3.718 3.718 0 0 0-.551-2.173 2.1 2.1 0 0 0-1.912-.952z" class="cls-1" data-name="Path 21" transform="translate(-371.178 -31.747)"/>
        <path id="Path_22" d="M369.69 29.521a2.7 2.7 0 1 0-2.724 2.579h.029a2.594 2.594 0 0 0 2.695-2.579zm-2.724 1.333a1.342 1.342 0 1 1 1.507-1.333 1.336 1.336 0 0 1-1.507 1.333z" class="cls-1" data-name="Path 22" transform="translate(-356.476 -19.176)"/>
        <path id="Path_23" d="M365.609 45.6a.612.612 0 0 0-.609.609v11.213a.612.612 0 0 0 .609.609h3.738a.612.612 0 0 0 .609-.609V46.209a.612.612 0 0 0-.609-.609zm3.129 11.214h-2.521v-10h2.521z" class="cls-1" data-name="Path 23" transform="translate(-356.973 -32.387)"/>
    </g>
</svg>
