<svg xmlns="http://www.w3.org/2000/svg" viewBox="9432.721 3904.3 33.671 33.7">
    <defs>
        <style>
            .cls-1{fill:#fff}
        </style>
    </defs>
    <g id="Group_8" data-name="Group 8" transform="translate(9432.721 3904.3)">
        <path id="Path_11" d="M43.605 43.72h3.883a.612.612 0 0 0 .609-.609v-8.692h2a.6.6 0 0 0 .609-.551l.319-3.274a.535.535 0 0 0-.145-.464.675.675 0 0 0-.435-.2H48.1v-1.336c0-.261.087-.29.232-.29h2.086a.612.612 0 0 0 .609-.609v-3.186a.612.612 0 0 0-.609-.609h-2.872a4.284 4.284 0 0 0-3.622 1.623 5.024 5.024 0 0 0-.869 2.869v1.536h-1.246a.612.612 0 0 0-.609.609v3.3a.612.612 0 0 0 .609.609h1.246v8.724c-.055.289.231.55.55.55zm-1.246-10.49v-2.086h1.246a.612.612 0 0 0 .609-.609v-2.144a3.828 3.828 0 0 1 .637-2.173 3.091 3.091 0 0 1 2.666-1.13h2.26v2H48.3a1.391 1.391 0 0 0-1.42 1.507v1.941a.612.612 0 0 0 .609.609h2.289l-.232 2.086h-2.058a.612.612 0 0 0-.609.609v8.722h-2.665V33.81a.612.612 0 0 0-.609-.609l-1.246.029z" class="cls-1" data-name="Path 11" transform="translate(-29.262 -16.975)"/>
        <path id="Path_12" d="M43.184 20.961a.6.6 0 1 0-.927.753 15.66 15.66 0 0 1-22.6 21.53.6.6 0 0 0-.782.9 16.853 16.853 0 0 0 24.309-23.183z" class="cls-1" data-name="Path 12" transform="translate(-13.251 -14.731)"/>
        <path id="Path_13" d="M1.217 16.835A15.659 15.659 0 0 1 27.3 5.158a.6.6 0 0 0 .782-.9A17.066 17.066 0 0 0 16.835 0 16.83 16.83 0 0 0 3.767 27.441a.572.572 0 0 0 .84.087.6.6 0 0 0 .087-.84 15.661 15.661 0 0 1-3.477-9.853z" class="cls-1" data-name="Path 13"/>
    </g>
</svg>
