<svg xmlns="http://www.w3.org/2000/svg" viewBox="9481.575 3904.3 33.729 33.642">
    <defs>
        <style>
            .cls-1{fill:#fff}
        </style>
    </defs>
    <g id="Group_11" data-name="Group 11" transform="translate(9481.575 3904.3)">
        <g id="Group_9" data-name="Group 9">
            <path id="Path_14" d="M211.835 21.161a.6.6 0 1 0-.927.753 15.616 15.616 0 0 1-1.188 20.892 15.389 15.389 0 0 1-11.069 4.52 15.686 15.686 0 0 1-10.4-4.028.595.595 0 0 0-.811.869 16.836 16.836 0 0 0 28.136-12.4 17.022 17.022 0 0 0-3.738-10.605z" class="cls-1" data-name="Path 14" transform="translate(-181.844 -14.873)"/>
            <path id="Path_15" d="M169.817 16.835A15.659 15.659 0 0 1 195.9 5.158a.6.6 0 0 0 .782-.9A17.01 17.01 0 0 0 185.435 0a16.83 16.83 0 0 0-13.068 27.441.572.572 0 0 0 .84.087.6.6 0 0 0 .087-.84 15.832 15.832 0 0 1-3.477-9.852z" class="cls-1" data-name="Path 15" transform="translate(-168.6)"/>
        </g>
        <g id="Group_10" data-name="Group 10" transform="translate(7.186 7.186)">
            <path id="Path_16" d="M208.12 24.8h-10.084a4.65 4.65 0 0 0-4.636 4.636V39.52a4.65 4.65 0 0 0 4.636 4.636h10.084a4.65 4.65 0 0 0 4.636-4.636V29.436a4.65 4.65 0 0 0-4.636-4.636zm3.419 14.691a3.426 3.426 0 0 1-3.419 3.419h-10.084a3.426 3.426 0 0 1-3.419-3.419V29.436a3.426 3.426 0 0 1 3.419-3.419h10.084a3.426 3.426 0 0 1 3.419 3.419z" class="cls-1" data-name="Path 16" transform="translate(-193.4 -24.8)"/>
            <path id="Path_17" d="M243.653 37a.748.748 0 0 0-.753.753.731.731 0 0 0 .753.753.748.748 0 0 0 .753-.753.788.788 0 0 0-.753-.753z" class="cls-1" data-name="Path 17" transform="translate(-228.557 -33.465)"/>
            <path id="Path_18" d="M215.152 41.8a4.752 4.752 0 1 0 4.752 4.752 4.755 4.755 0 0 0-4.752-4.752zm0 8.258a3.506 3.506 0 1 1 3.506-3.506 3.5 3.5 0 0 1-3.506 3.506z" class="cls-1" data-name="Path 18" transform="translate(-205.474 -36.874)"/>
        </g>
    </g>
</svg>
