<svg xmlns="http://www.w3.org/2000/svg" viewBox="9579.313 3904.3 33.671 33.7">
    <defs>
        <style>
            .cls-1{fill:#fff}
        </style>
    </defs>
    <g id="Group_13" data-name="Group 13" transform="translate(9579.314 3904.3)">
        <path id="Path_24" d="M549.084 20.961a.6.6 0 1 0-.927.753 15.66 15.66 0 0 1-22.6 21.53.6.6 0 0 0-.782.9 16.853 16.853 0 0 0 24.311-23.181z" class="cls-1" data-name="Path 24" transform="translate(-519.151 -14.731)"/>
        <path id="Path_25" d="M507.117 16.835A15.659 15.659 0 0 1 533.2 5.158a.6.6 0 1 0 .782-.9A17.066 17.066 0 0 0 522.735 0a16.83 16.83 0 0 0-13.069 27.441.572.572 0 0 0 .84.087.6.6 0 0 0 .087-.84 15.662 15.662 0 0 1-3.476-9.853z" class="cls-1" data-name="Path 25" transform="translate(-505.9)"/>
        <path id="Path_26" d="M552.481 35.382a.608.608 0 0 0-.029-.724.636.636 0 0 0-.7-.174c-.029 0-.029 0-.058.029a4.026 4.026 0 0 0 .348-.811.6.6 0 0 0-.2-.666.668.668 0 0 0-.7-.058 6.659 6.659 0 0 1-1.941.782 4.526 4.526 0 0 0-2.985-1.159 4.433 4.433 0 0 0-4.434 4.433v.2a10.343 10.343 0 0 1-6.723-3.709.678.678 0 0 0-.521-.232.575.575 0 0 0-.464.29 4.305 4.305 0 0 0-.609 2.231 4.4 4.4 0 0 0 .522 2.115.468.468 0 0 0-.261.087.648.648 0 0 0-.29.522v.062a4.491 4.491 0 0 0 1.536 3.361l-.058.058a.593.593 0 0 0-.116.58 4.351 4.351 0 0 0 2.579 2.753 7.07 7.07 0 0 1-3.187.753 7.656 7.656 0 0 1-.84-.058.6.6 0 0 0-.637.406.592.592 0 0 0 .232.7 11.484 11.484 0 0 0 6.2 1.826 10.985 10.985 0 0 0 8.519-3.738 11.822 11.822 0 0 0 2.956-7.737v-.2a6.851 6.851 0 0 0 1.861-1.922zm-2.753 1.159a.62.62 0 0 0-.261.522v.464a10.514 10.514 0 0 1-2.666 6.925 9.791 9.791 0 0 1-7.621 3.332 9.935 9.935 0 0 1-3.448-.609 8.2 8.2 0 0 0 3.622-1.623.591.591 0 0 0 .2-.666.623.623 0 0 0-.551-.406 3.25 3.25 0 0 1-2.603-1.39 4.835 4.835 0 0 0 .9-.145.613.613 0 0 0-.058-1.188 3.215 3.215 0 0 1-2.463-2.26 3.859 3.859 0 0 0 .985.145.6.6 0 0 0 .58-.406.649.649 0 0 0-.232-.7 3.211 3.211 0 0 1-1.42-2.695 2.618 2.618 0 0 1 .116-.811 11.474 11.474 0 0 0 7.679 3.477.6.6 0 0 0 .493-.2.574.574 0 0 0 .116-.522 3.1 3.1 0 0 1-.087-.724 3.218 3.218 0 0 1 5.563-2.2.567.567 0 0 0 .551.174 4.477 4.477 0 0 0 .666-.174 2.417 2.417 0 0 1-.348.232.595.595 0 0 0 .377 1.1c.087 0 .2-.029.29-.029a.942.942 0 0 1-.38.377z" class="cls-1" data-name="Path 26" transform="translate(-524.924 -23.154)"/>
    </g>
</svg>