<svg xmlns="http://www.w3.org/2000/svg" viewBox="9628.169 3904.3 33.671 33.7">
    <defs>
        <style>
            .cls-1{fill:#fff}
        </style>
    </defs>
    <g id="Group_7" data-name="Group 7" transform="translate(9628.169 3904.3)">
        <path id="Path_7" d="M717.684 20.961a.6.6 0 1 0-.927.753 15.66 15.66 0 0 1-22.6 21.53.6.6 0 0 0-.782.9 16.853 16.853 0 0 0 24.311-23.181z" class="cls-1" data-name="Path 7" transform="translate(-687.751 -14.731)"/>
        <path id="Path_8" d="M675.717 16.835A15.659 15.659 0 0 1 701.8 5.158a.6.6 0 1 0 .782-.9A17.01 17.01 0 0 0 691.335 0a16.83 16.83 0 0 0-13.068 27.441.572.572 0 0 0 .84.087.6.6 0 0 0 .087-.84 15.832 15.832 0 0 1-3.477-9.853z" class="cls-1" data-name="Path 8" transform="translate(-674.5)"/>
        <path id="Path_9" d="M717.334 34.309a5.353 5.353 0 0 0-.927-2.434 3.318 3.318 0 0 0-2.26-1.072H714c-2.753-.2-6.925-.2-6.983-.2-.029 0-4.2 0-6.983.2h-.145a3.318 3.318 0 0 0-2.26 1.072 4.927 4.927 0 0 0-.927 2.434c0 .058-.2 1.768-.2 3.477v1.623c0 1.739.2 3.419.2 3.477a5.352 5.352 0 0 0 .927 2.434 3.374 3.374 0 0 0 2.289 1.043c.087 0 .174.029.232.029h.058c1.594.174 6.578.2 6.81.2.029 0 4.2 0 6.983-.232h.145a3.215 3.215 0 0 0 2.231-1.072 4.927 4.927 0 0 0 .927-2.434c0-.058.2-1.768.2-3.477v-1.591a32.305 32.305 0 0 0-.174-3.477zm-1.014 5.1a26.806 26.806 0 0 1-.2 3.332 4.234 4.234 0 0 1-.637 1.768 2.191 2.191 0 0 1-1.478.7h-.116c-2.724.2-6.839.2-6.867.2-.058 0-5.071-.058-6.665-.2a.893.893 0 0 0-.29-.029 2.262 2.262 0 0 1-1.536-.666 4.05 4.05 0 0 1-.638-1.768c0-.116-.2-1.739-.2-3.332v-1.599a26.826 26.826 0 0 1 .2-3.332 4.236 4.236 0 0 1 .638-1.768 2.191 2.191 0 0 1 1.478-.7h.116c2.724-.2 6.839-.2 6.867-.2.029 0 4.144 0 6.867.2h.116a1.956 1.956 0 0 1 1.478.7 4.05 4.05 0 0 1 .638 1.768c0 .116.2 1.739.2 3.332z" class="cls-1" data-name="Path 9" transform="translate(-690.125 -21.733)"/>
        <path id="Path_10" d="M729.228 47.1l-6.2-3.709a.575.575 0 0 0-.609 0 .61.61 0 0 0-.319.522v7.418a.61.61 0 0 0 .319.522.559.559 0 0 0 .29.087.66.66 0 0 0 .319-.087l6.2-3.709a.648.648 0 0 0 .29-.522.581.581 0 0 0-.29-.522zm-5.882 3.187v-5.3l4.433 2.666z" class="cls-1" data-name="Path 10" transform="translate(-708.307 -30.753)"/>
    </g>
</svg>
